<?xml version="1.0" encoding="UTF-8" ?>
<!DOCTYPE svg PUBLIC "-//W3C//DTD SVG 1.1//EN" "http://www.w3.org/Graphics/SVG/1.1/DTD/svg11.dtd">
<svg width="1947pt" height="1402pt" viewBox="0 0 1947 1402" version="1.1" xmlns="http://www.w3.org/2000/svg">
<g id="#000000ff">
<path fill="#000000" opacity="1.00" d=" M 0.00 0.00 L 1947.00 0.00 L 1947.00 1402.00 L 0.00 1402.00 L 0.00 0.00 M 906.67 310.73 C 904.23 316.82 903.54 323.48 903.65 330.00 C 903.81 364.48 903.42 398.97 903.84 433.45 C 867.55 433.48 831.26 433.41 794.98 433.48 C 784.21 434.08 773.46 438.13 765.47 445.47 C 755.85 454.12 749.84 466.99 750.32 480.01 C 750.32 500.67 750.30 521.33 750.33 541.99 C 749.68 562.68 765.66 582.63 785.90 586.64 C 793.73 588.83 801.95 588.23 810.00 588.30 C 841.22 588.32 872.44 588.27 903.67 588.33 C 903.66 617.88 903.67 647.44 903.67 677.00 C 903.75 686.60 903.19 696.28 904.77 705.78 C 906.60 710.88 908.30 716.13 911.36 720.67 C 919.51 733.17 933.83 741.94 948.96 741.76 C 971.32 741.80 993.70 741.95 1016.06 741.68 C 1038.86 740.76 1058.70 719.78 1058.60 697.01 C 1058.60 660.74 1058.67 624.48 1058.57 588.21 C 1089.37 588.43 1120.19 588.24 1151.00 588.30 C 1159.70 588.17 1168.60 588.95 1177.09 586.61 C 1188.43 584.61 1197.98 576.77 1204.69 567.71 C 1209.93 559.90 1212.89 550.41 1212.60 540.99 C 1212.59 519.99 1212.63 499.00 1212.58 478.00 C 1212.06 457.58 1196.39 438.47 1176.17 434.73 C 1173.18 433.91 1170.12 433.32 1167.02 433.41 C 1130.84 433.35 1094.67 433.46 1058.49 433.35 C 1058.77 397.24 1058.54 361.11 1058.61 324.99 C 1058.95 301.45 1037.86 279.28 1013.99 280.18 C 990.31 280.23 966.62 279.89 942.95 280.37 C 926.50 282.62 911.87 294.97 906.67 310.73 M 794.54 332.31 C 762.93 337.90 733.60 354.33 711.49 377.49 C 685.91 404.39 670.11 440.13 666.52 477.00 C 666.05 486.66 666.17 496.33 666.24 505.99 C 666.15 519.59 668.80 533.04 672.18 546.16 C 680.44 578.62 697.64 607.98 717.43 634.70 C 726.67 647.59 736.74 659.84 747.30 671.67 C 771.41 700.44 798.40 726.58 825.12 752.88 C 854.42 780.61 883.96 808.08 914.16 834.83 C 926.52 845.29 939.50 855.88 955.28 860.59 C 939.25 843.35 921.96 827.31 905.97 810.03 C 898.60 802.39 890.95 795.02 883.89 787.09 C 863.24 766.04 843.72 743.93 824.20 721.84 C 809.51 705.11 795.69 687.65 781.99 670.11 C 761.42 642.83 742.42 614.15 728.00 583.10 C 719.69 564.00 713.78 543.75 711.56 523.00 C 711.15 512.67 711.12 502.31 711.55 491.99 C 713.38 474.80 718.49 457.90 727.00 442.82 C 743.77 412.59 775.62 391.35 809.95 387.46 C 822.78 387.19 835.84 386.37 848.42 389.54 C 860.07 391.73 870.69 397.20 881.43 401.98 C 881.69 381.97 881.54 361.95 881.51 341.94 C 866.61 336.08 850.93 332.02 834.99 330.45 C 821.51 330.31 807.80 329.25 794.54 332.31 M 1081.49 346.87 C 1081.20 366.22 1081.36 385.58 1081.41 404.93 C 1095.57 402.28 1109.70 399.15 1124.14 398.35 C 1135.82 396.83 1147.56 398.12 1159.24 398.76 C 1189.34 401.61 1219.17 412.93 1241.81 433.30 C 1256.15 445.90 1267.04 462.16 1274.45 479.68 C 1282.12 497.49 1286.00 516.73 1287.42 536.00 C 1287.61 540.75 1287.25 545.58 1288.51 550.23 C 1292.74 540.24 1295.19 529.57 1297.04 518.91 C 1299.18 508.07 1298.73 496.99 1298.77 486.01 C 1299.11 466.16 1294.28 446.50 1286.77 428.23 C 1279.17 411.32 1268.98 395.33 1255.51 382.49 C 1241.32 368.50 1223.82 358.13 1205.22 351.18 C 1183.40 343.44 1160.11 339.94 1137.00 340.43 C 1118.30 340.31 1099.84 343.69 1081.49 346.87 M 1238.25 474.82 C 1238.26 477.20 1238.32 479.64 1238.93 481.98 C 1240.57 488.56 1241.28 495.32 1242.34 502.00 C 1242.91 513.31 1243.02 524.65 1242.69 535.98 C 1242.62 548.22 1239.99 560.28 1237.03 572.11 C 1227.17 609.15 1206.46 642.60 1180.67 670.67 C 1166.16 687.18 1149.35 701.44 1132.32 715.24 C 1102.09 738.85 1069.05 758.70 1034.87 776.01 C 1017.36 784.85 999.21 792.34 981.43 800.58 C 981.58 829.96 981.31 859.35 981.57 888.73 C 1036.60 853.30 1089.12 813.72 1136.51 768.51 C 1151.17 753.87 1166.18 739.51 1179.51 723.62 C 1206.31 692.78 1230.42 659.01 1246.25 621.14 C 1253.30 603.83 1258.53 585.64 1260.45 567.00 C 1260.89 552.37 1261.73 537.50 1258.59 523.09 C 1256.28 511.30 1252.41 499.81 1247.05 489.05 C 1244.40 484.16 1242.61 478.51 1238.25 474.82 M 582.31 560.55 C 582.33 563.38 582.39 566.22 582.80 569.04 C 584.53 580.07 586.42 591.07 588.28 602.08 C 589.11 607.80 593.70 611.75 596.71 616.37 C 611.71 638.75 622.97 663.33 636.76 686.42 C 640.36 691.97 643.49 697.98 648.45 702.49 C 649.30 678.01 650.23 653.49 649.43 628.99 C 648.60 617.94 646.58 606.85 642.26 596.61 C 639.28 590.07 634.84 583.38 627.80 580.83 C 626.77 593.03 625.44 605.20 624.03 617.36 C 621.15 613.26 620.33 608.23 618.41 603.70 C 615.48 596.47 612.18 589.36 608.20 582.65 C 602.18 572.86 593.66 563.84 582.31 560.55 M 1363.43 571.45 C 1355.87 579.11 1350.90 588.84 1346.55 598.57 C 1343.76 604.49 1342.19 610.91 1339.07 616.67 C 1337.23 604.77 1336.51 592.73 1335.15 580.77 C 1328.74 583.42 1324.44 589.32 1321.37 595.30 C 1316.63 605.19 1314.66 616.15 1313.60 626.99 C 1312.95 641.32 1313.37 655.66 1313.53 670.00 C 1313.41 680.85 1314.62 691.65 1314.55 702.51 C 1321.06 696.30 1324.93 688.01 1329.57 680.43 C 1343.97 656.48 1355.29 630.60 1372.24 608.23 C 1375.10 604.44 1375.13 599.48 1375.96 595.00 C 1377.89 583.57 1379.90 572.16 1381.41 560.67 C 1374.42 562.16 1368.33 566.37 1363.43 571.45 M 531.84 583.11 C 533.42 588.50 536.07 593.47 538.39 598.56 C 551.09 626.00 563.60 653.54 577.23 680.54 C 584.25 695.81 591.98 710.73 599.39 725.80 C 606.11 739.43 614.18 752.44 623.98 764.08 C 634.17 776.53 646.54 786.92 659.07 796.93 C 669.37 804.87 680.36 811.89 691.70 818.25 C 732.00 841.58 775.79 858.50 814.95 883.86 C 821.60 887.91 827.65 892.96 834.74 896.26 C 834.21 890.97 832.78 885.85 831.54 880.71 C 824.14 847.32 814.56 814.00 798.25 783.76 C 786.58 761.51 770.43 741.96 752.63 724.36 C 733.58 705.42 714.16 686.85 695.67 667.35 C 690.62 661.94 686.26 655.90 680.79 650.88 C 677.33 666.27 677.78 682.70 683.74 697.43 C 688.44 708.96 695.73 719.14 701.82 729.94 C 707.55 740.60 713.68 751.43 715.86 763.48 C 705.30 758.54 695.38 752.34 685.22 746.64 C 669.95 737.77 654.20 729.03 641.92 716.11 C 634.96 709.18 629.96 700.64 624.81 692.36 C 615.94 677.09 607.78 661.42 598.98 646.11 C 589.06 628.38 578.25 610.68 563.03 596.95 C 554.52 589.18 543.81 582.51 531.84 583.11 M 1413.24 587.39 C 1404.33 591.99 1397.31 599.30 1390.49 606.49 C 1372.25 627.54 1360.71 653.11 1347.00 677.10 C 1338.34 692.52 1329.76 708.49 1316.53 720.55 C 1302.28 733.35 1284.96 741.88 1268.65 751.64 C 1261.51 755.54 1254.56 759.84 1247.14 763.19 C 1248.39 754.08 1252.73 745.80 1256.77 737.66 C 1265.78 720.24 1279.19 704.55 1282.90 684.81 C 1285.38 673.61 1284.61 662.01 1282.25 650.87 C 1278.07 654.87 1274.57 659.50 1270.66 663.75 C 1253.31 682.36 1235.05 700.09 1216.82 717.82 C 1203.74 730.82 1190.64 743.97 1179.94 759.05 C 1156.29 791.46 1142.92 830.01 1133.65 868.70 C 1131.59 877.77 1129.01 886.80 1128.32 896.11 C 1134.87 892.69 1140.69 888.07 1146.95 884.16 C 1161.17 875.31 1175.70 866.95 1190.71 859.52 C 1199.33 854.54 1208.59 850.86 1217.40 846.25 C 1245.41 832.24 1273.85 818.63 1299.41 800.35 C 1310.41 792.18 1320.90 783.27 1330.52 773.50 C 1344.53 759.29 1355.59 742.39 1364.31 724.49 C 1373.63 706.03 1382.28 687.25 1391.60 668.79 C 1401.39 647.97 1411.75 627.42 1421.26 606.46 C 1424.59 598.67 1428.57 591.15 1431.31 583.12 C 1425.05 583.07 1418.72 584.25 1413.24 587.39 M 574.75 975.79 C 574.51 1013.71 574.77 1051.62 574.62 1089.54 C 583.57 1089.75 592.52 1089.71 601.48 1089.57 C 601.75 1071.47 600.96 1053.34 601.88 1035.26 C 606.71 1041.64 609.03 1049.41 612.50 1056.54 C 617.62 1067.48 622.20 1078.67 627.52 1089.53 C 637.17 1089.75 646.83 1089.77 656.48 1089.51 C 661.96 1077.66 667.17 1065.69 672.63 1053.84 C 676.07 1046.89 678.39 1039.43 682.28 1032.71 C 682.88 1051.62 682.17 1070.55 682.63 1089.47 C 691.26 1089.79 699.89 1089.73 708.52 1089.51 C 708.76 1051.83 708.71 1014.14 708.55 976.46 C 700.02 976.29 691.47 976.14 682.94 976.41 C 680.75 976.33 679.95 978.73 678.94 980.23 C 673.95 989.77 669.97 999.80 665.27 1009.48 C 657.25 1025.93 649.66 1042.59 641.97 1059.20 C 638.43 1053.02 636.12 1046.25 632.94 1039.90 C 628.10 1029.72 623.62 1019.37 618.60 1009.27 C 613.56 999.39 609.54 989.04 604.69 979.08 C 603.87 977.59 602.93 975.50 600.89 975.76 C 592.18 975.61 583.46 975.74 574.75 975.79 M 735.76 975.80 C 735.51 1013.70 735.78 1051.62 735.63 1089.53 C 763.71 1089.79 791.79 1089.66 819.88 1089.59 C 820.92 1081.41 820.49 1073.13 820.18 1064.91 C 800.97 1064.14 781.73 1064.88 762.50 1064.54 C 762.43 1058.17 762.42 1051.81 762.51 1045.45 C 777.93 1045.10 793.36 1045.75 808.78 1045.12 C 809.60 1037.55 809.60 1029.89 808.80 1022.32 C 793.37 1021.81 777.88 1023.07 762.50 1021.63 C 762.43 1014.87 762.41 1008.12 762.52 1001.37 C 769.95 1000.13 777.50 1000.80 785.00 1000.67 C 796.79 1000.56 808.60 1000.89 820.39 1000.49 C 820.28 992.22 821.07 983.89 819.88 975.67 C 791.84 975.85 763.80 975.61 735.76 975.80 M 844.36 976.38 C 844.25 1014.12 844.23 1051.85 844.37 1089.59 C 861.25 1089.76 878.14 1089.61 895.04 1089.66 C 906.13 1089.86 917.10 1086.35 926.50 1080.56 C 940.59 1072.12 949.42 1056.23 950.63 1040.03 C 950.90 1031.91 951.17 1023.61 948.93 1015.72 C 946.91 1008.59 943.49 1001.85 938.96 995.99 C 931.67 987.07 921.26 980.96 910.23 977.91 C 903.01 975.78 895.42 976.38 888.00 976.30 C 873.45 976.36 858.90 976.18 844.36 976.38 M 963.65 1023.60 C 963.56 1045.52 963.55 1067.45 963.66 1089.38 C 968.89 1089.56 974.13 1089.56 979.37 1089.39 C 979.35 1084.70 979.41 1080.02 979.70 1075.35 C 983.66 1075.34 987.63 1075.35 991.60 1075.46 C 994.92 1079.91 996.86 1085.51 1001.16 1089.15 C 1006.67 1089.95 1012.28 1089.45 1017.82 1089.25 C 1015.15 1082.71 1010.26 1077.43 1007.43 1070.98 C 1010.93 1067.13 1014.80 1063.20 1016.03 1057.97 C 1019.14 1047.64 1016.08 1035.32 1007.55 1028.45 C 1002.97 1024.68 996.87 1023.37 991.05 1023.48 C 981.91 1023.53 972.78 1023.39 963.65 1023.60 M 1028.68 1023.61 C 1028.58 1045.54 1028.60 1067.46 1028.67 1089.39 C 1045.01 1089.58 1061.35 1089.51 1077.70 1089.43 C 1078.51 1084.52 1078.52 1079.51 1077.69 1074.60 C 1068.45 1074.49 1059.20 1074.62 1049.96 1074.61 C 1048.09 1074.44 1045.70 1074.96 1044.65 1072.98 C 1044.26 1070.14 1044.44 1067.27 1044.47 1064.44 C 1053.43 1063.79 1062.45 1064.94 1071.37 1063.64 C 1071.52 1059.20 1071.57 1054.73 1070.84 1050.35 C 1062.04 1050.02 1053.19 1050.88 1044.46 1049.56 C 1044.42 1045.86 1044.42 1042.17 1044.47 1038.49 C 1055.48 1037.95 1066.56 1039.19 1077.52 1037.76 C 1077.71 1032.98 1077.77 1028.19 1077.15 1023.45 C 1060.99 1023.62 1044.83 1023.33 1028.68 1023.61 M 1085.64 1023.59 C 1085.51 1028.51 1085.51 1033.42 1085.68 1038.34 C 1092.63 1038.49 1099.59 1038.30 1106.55 1038.53 C 1106.90 1055.46 1106.53 1072.40 1106.72 1089.34 C 1112.21 1089.59 1117.70 1089.59 1123.19 1089.31 C 1123.31 1072.37 1122.99 1055.42 1123.34 1038.49 C 1130.31 1038.33 1137.28 1038.50 1144.26 1038.31 C 1144.38 1033.42 1144.38 1028.52 1144.29 1023.64 C 1124.74 1023.38 1105.18 1023.46 1085.64 1023.59 M 1153.59 1023.57 C 1153.41 1045.44 1153.57 1067.31 1153.51 1089.18 C 1158.30 1089.47 1163.15 1089.89 1167.94 1089.24 C 1170.27 1085.11 1169.03 1079.95 1169.36 1075.39 C 1173.36 1075.33 1177.37 1075.34 1181.38 1075.52 C 1184.46 1079.89 1186.53 1085.05 1190.33 1088.86 C 1196.00 1090.21 1202.13 1089.70 1207.85 1088.60 C 1204.31 1082.62 1200.18 1077.02 1196.62 1071.06 C 1200.42 1066.78 1204.70 1062.44 1206.04 1056.67 C 1207.90 1048.27 1206.55 1038.85 1200.95 1032.09 C 1196.52 1026.36 1189.20 1023.40 1182.06 1023.50 C 1172.57 1023.49 1163.08 1023.43 1153.59 1023.57 M 1218.63 1023.59 C 1218.42 1045.45 1218.61 1067.31 1218.53 1089.17 C 1225.34 1089.71 1232.17 1089.44 1239.00 1089.47 C 1248.49 1089.31 1258.01 1089.90 1267.49 1089.10 C 1267.54 1084.27 1267.54 1079.45 1267.39 1074.63 C 1256.42 1074.40 1245.45 1074.79 1234.49 1074.44 C 1234.39 1071.12 1234.34 1067.82 1234.29 1064.52 C 1243.18 1062.73 1252.29 1064.18 1261.28 1063.46 C 1261.43 1058.87 1261.47 1054.25 1260.50 1049.74 C 1251.81 1049.55 1243.11 1049.89 1234.42 1049.54 C 1234.34 1045.87 1234.34 1042.20 1234.44 1038.54 C 1245.41 1038.20 1256.39 1038.59 1267.37 1038.35 C 1267.56 1033.43 1267.56 1028.50 1267.40 1023.59 C 1251.14 1023.43 1234.88 1023.43 1218.63 1023.59 M 1341.75 1023.63 C 1341.59 1028.56 1341.50 1033.52 1342.27 1038.41 C 1349.30 1038.46 1356.33 1038.26 1363.36 1038.59 C 1363.66 1055.54 1363.30 1072.49 1363.52 1089.45 C 1368.78 1089.54 1374.05 1089.56 1379.31 1089.36 C 1379.50 1072.41 1379.15 1055.46 1379.47 1038.51 C 1386.43 1038.32 1393.39 1038.47 1400.36 1038.35 C 1400.54 1033.43 1400.53 1028.51 1400.38 1023.60 C 1380.84 1023.45 1361.29 1023.39 1341.75 1023.63 M 1412.82 1028.73 C 1408.43 1032.09 1405.92 1037.52 1405.64 1042.99 C 1405.57 1048.52 1408.53 1053.92 1413.20 1056.89 C 1420.97 1062.15 1430.56 1062.96 1439.21 1066.03 C 1441.70 1067.06 1445.62 1068.86 1444.24 1072.23 C 1441.14 1075.94 1435.65 1075.68 1431.28 1075.29 C 1425.98 1074.80 1422.50 1070.44 1419.16 1066.81 C 1414.42 1068.25 1409.77 1069.93 1405.20 1071.82 C 1407.99 1082.07 1417.67 1089.51 1428.13 1090.46 C 1436.10 1091.00 1444.81 1091.19 1451.79 1086.66 C 1458.78 1082.39 1463.11 1073.38 1460.46 1065.36 C 1459.39 1061.05 1456.32 1057.49 1452.55 1055.28 C 1444.55 1050.47 1435.05 1049.56 1426.45 1046.33 C 1424.48 1045.54 1421.49 1043.72 1422.83 1041.24 C 1425.12 1038.23 1429.36 1038.09 1432.84 1038.11 C 1437.03 1037.97 1440.29 1040.94 1444.02 1042.36 C 1449.06 1041.59 1453.89 1039.47 1457.96 1036.40 C 1454.50 1030.33 1449.02 1025.33 1442.18 1023.49 C 1432.31 1020.87 1420.92 1022.16 1412.82 1028.73 M 1303.85 1023.59 C 1297.34 1036.90 1292.05 1050.77 1286.02 1064.30 C 1282.88 1072.70 1278.14 1080.51 1276.07 1089.29 C 1281.24 1089.33 1286.57 1090.15 1291.66 1088.97 C 1294.16 1086.45 1295.08 1082.79 1296.71 1079.69 C 1306.85 1079.53 1316.99 1079.45 1327.13 1079.74 C 1328.63 1082.99 1330.23 1086.19 1331.90 1089.37 C 1337.27 1089.50 1342.73 1090.01 1347.99 1088.59 C 1346.42 1084.43 1344.68 1080.36 1342.91 1076.31 C 1335.16 1058.80 1328.05 1041.02 1320.03 1023.65 C 1314.64 1023.42 1309.24 1023.44 1303.85 1023.59 M 167.87 1182.42 C 167.13 1197.76 167.69 1213.15 167.58 1228.51 C 169.54 1228.54 171.51 1228.57 173.48 1228.60 C 173.53 1213.17 173.80 1197.73 173.34 1182.31 C 171.51 1182.34 169.69 1182.38 167.87 1182.42 M 198.94 1185.99 C 193.11 1190.86 194.33 1201.62 201.40 1204.78 C 207.65 1208.22 215.24 1208.04 221.40 1211.66 C 224.50 1213.24 224.10 1217.80 221.98 1220.04 C 218.17 1224.10 211.65 1224.58 206.73 1222.44 C 202.90 1220.79 201.20 1216.71 199.13 1213.40 C 197.19 1214.27 195.24 1215.12 193.28 1215.96 C 195.02 1219.03 196.69 1222.27 199.42 1224.62 C 207.01 1231.22 219.57 1230.83 226.85 1223.92 C 230.21 1220.62 230.15 1215.38 229.15 1211.12 C 227.15 1206.02 221.23 1204.70 216.51 1203.37 C 211.68 1201.94 205.83 1201.53 202.48 1197.30 C 200.41 1194.97 201.93 1191.71 203.90 1189.91 C 206.93 1186.95 211.59 1186.96 215.50 1187.63 C 219.56 1188.44 221.26 1192.61 223.85 1195.34 C 225.84 1196.18 227.86 1194.57 229.77 1194.08 C 228.19 1191.16 226.68 1188.09 224.16 1185.86 C 217.22 1179.76 205.97 1180.34 198.94 1185.99 M 258.14 1187.06 C 250.25 1193.47 247.23 1205.20 251.43 1214.54 C 254.68 1222.96 263.24 1228.53 272.06 1229.35 C 280.19 1229.90 288.60 1226.08 293.26 1219.35 C 294.67 1216.73 290.69 1216.27 289.19 1215.12 C 285.42 1218.70 281.31 1222.41 276.00 1223.32 C 267.02 1224.55 257.90 1217.83 256.13 1208.96 C 253.26 1197.66 264.29 1185.68 275.83 1187.57 C 281.57 1187.69 285.20 1192.43 289.31 1195.69 C 291.25 1195.36 293.01 1194.41 294.80 1193.66 C 291.85 1189.17 287.91 1185.11 282.76 1183.25 C 274.68 1179.80 264.86 1181.49 258.14 1187.06 M 333.29 1182.04 C 324.92 1183.74 317.60 1190.18 315.30 1198.48 C 313.59 1204.75 314.22 1211.76 317.54 1217.42 C 320.78 1223.20 326.66 1227.33 333.11 1228.73 C 340.96 1230.59 349.72 1228.13 355.43 1222.41 C 360.54 1217.08 363.38 1209.42 362.25 1202.05 C 361.29 1196.05 358.20 1190.28 353.31 1186.58 C 347.71 1182.29 340.20 1180.44 333.29 1182.04 M 376.98 1182.48 C 379.25 1190.45 383.36 1197.72 386.31 1205.44 C 389.79 1213.19 392.35 1221.36 396.55 1228.77 C 398.44 1228.66 400.34 1228.59 402.24 1228.54 C 405.95 1220.88 408.85 1212.87 412.24 1205.08 C 415.21 1197.55 418.88 1190.29 421.27 1182.54 C 419.14 1182.46 417.02 1182.43 414.91 1182.43 C 409.68 1194.62 404.98 1207.06 399.41 1219.11 C 396.97 1215.50 395.39 1211.44 393.84 1207.41 C 390.35 1199.10 387.26 1190.62 383.50 1182.43 C 381.32 1182.42 379.15 1182.43 376.98 1182.48 M 717.52 1182.51 C 717.45 1197.84 717.40 1213.18 717.55 1228.51 C 728.54 1228.68 739.55 1228.74 750.55 1228.48 C 750.59 1226.76 750.64 1225.08 750.69 1223.39 C 741.64 1223.12 732.52 1224.00 723.52 1222.82 C 723.44 1209.37 723.57 1195.93 723.45 1182.49 C 721.47 1182.47 719.49 1182.47 717.52 1182.51 M 770.63 1182.54 C 770.43 1197.85 770.49 1213.17 770.60 1228.48 C 781.59 1228.74 792.60 1228.67 803.60 1228.53 C 803.63 1226.78 803.68 1225.07 803.73 1223.36 C 794.81 1223.33 785.89 1223.59 776.98 1223.18 C 776.17 1209.59 776.84 1195.95 776.62 1182.34 C 774.62 1182.40 772.61 1182.45 770.63 1182.54 M 942.07 1185.14 C 936.11 1189.25 935.76 1199.00 941.47 1203.50 C 948.02 1208.48 957.13 1207.49 963.92 1212.00 C 966.13 1213.33 965.73 1216.23 965.29 1218.39 C 962.26 1223.66 954.97 1224.77 949.65 1222.72 C 945.54 1221.11 943.45 1216.96 941.23 1213.45 C 939.29 1214.30 937.35 1215.13 935.40 1215.96 C 937.77 1220.28 940.44 1224.87 945.07 1227.09 C 952.67 1230.76 962.85 1230.14 968.98 1223.96 C 973.29 1219.02 973.16 1209.36 966.70 1206.23 C 960.76 1203.05 953.77 1202.94 947.72 1200.09 C 944.83 1198.80 942.26 1195.23 944.18 1192.14 C 946.91 1187.17 953.43 1186.52 958.40 1187.82 C 962.04 1188.91 963.46 1192.80 965.87 1195.36 C 967.98 1196.25 969.98 1194.55 971.88 1193.83 C 969.88 1190.12 967.57 1186.34 963.86 1184.13 C 957.22 1180.09 948.43 1180.98 942.07 1185.14 M 997.59 1185.64 C 992.15 1189.98 992.09 1199.07 997.51 1203.46 C 1004.06 1208.43 1013.15 1207.47 1019.95 1211.96 C 1022.19 1213.29 1021.79 1216.22 1021.35 1218.41 C 1018.32 1223.72 1010.96 1224.78 1005.65 1222.68 C 1001.63 1221.17 1000.08 1216.81 997.00 1214.22 C 995.24 1214.53 993.56 1215.11 991.89 1215.66 C 993.21 1218.63 994.46 1221.80 996.91 1224.07 C 1001.08 1228.26 1007.32 1229.60 1013.06 1229.30 C 1019.09 1228.78 1025.73 1225.63 1027.65 1219.45 C 1029.66 1214.62 1027.33 1208.54 1022.70 1206.19 C 1018.15 1203.82 1013.02 1203.09 1008.15 1201.71 C 1005.39 1200.87 1002.33 1199.91 1000.61 1197.44 C 1000.02 1194.94 999.75 1191.71 1001.96 1189.92 C 1005.04 1187.01 1009.68 1186.97 1013.63 1187.59 C 1018.06 1188.59 1020.12 1193.13 1022.94 1196.23 C 1024.47 1195.23 1026.00 1194.24 1027.54 1193.25 C 1025.63 1190.02 1023.73 1186.57 1020.52 1184.46 C 1013.65 1179.94 1004.08 1180.84 997.59 1185.64 M 1186.89 1182.52 C 1190.44 1189.27 1195.07 1195.38 1199.13 1201.84 C 1201.47 1205.67 1204.71 1209.28 1205.20 1213.92 C 1205.58 1218.56 1205.01 1223.23 1205.43 1227.88 C 1206.87 1228.89 1208.80 1228.55 1210.47 1228.95 C 1212.99 1221.74 1208.95 1213.23 1213.78 1206.78 C 1219.20 1198.76 1224.39 1190.58 1229.77 1182.53 C 1227.07 1182.46 1224.37 1182.44 1221.68 1182.51 C 1217.19 1189.39 1213.34 1196.73 1208.09 1203.09 C 1202.96 1196.61 1198.96 1189.35 1194.40 1182.47 C 1191.89 1182.43 1189.38 1182.45 1186.89 1182.52 M 1268.32 1182.05 C 1260.36 1183.60 1253.53 1189.51 1250.86 1197.16 C 1246.58 1208.21 1252.05 1221.97 1262.79 1226.98 C 1271.56 1231.18 1282.80 1229.55 1289.97 1222.96 C 1295.20 1217.84 1298.19 1210.33 1297.40 1202.99 C 1296.60 1195.70 1292.46 1188.70 1286.09 1184.95 C 1280.77 1181.90 1274.33 1180.64 1268.32 1182.05 M 1542.30 1182.04 C 1532.06 1184.04 1523.60 1193.41 1523.42 1203.96 C 1522.49 1215.18 1530.74 1226.59 1541.95 1228.55 C 1547.50 1228.94 1553.52 1229.45 1558.59 1226.66 C 1565.49 1223.35 1569.95 1216.25 1571.24 1208.85 C 1572.65 1199.65 1568.11 1189.73 1560.08 1184.96 C 1554.76 1181.90 1548.31 1180.65 1542.30 1182.04 M 1826.54 1185.57 C 1821.10 1189.88 1820.94 1199.22 1826.48 1203.53 C 1833.05 1208.45 1842.15 1207.47 1848.92 1212.01 C 1851.15 1213.31 1850.79 1216.23 1850.31 1218.39 C 1847.35 1223.39 1840.63 1224.63 1835.41 1223.01 C 1831.10 1221.52 1828.62 1217.44 1826.03 1213.99 C 1824.29 1214.55 1822.57 1215.15 1820.89 1215.78 C 1822.47 1220.49 1825.51 1224.85 1830.09 1227.07 C 1838.03 1231.00 1849.17 1230.06 1854.91 1222.81 C 1857.91 1217.91 1857.94 1209.73 1852.35 1206.62 C 1846.31 1203.07 1838.99 1203.04 1832.72 1200.08 C 1830.11 1198.83 1827.50 1195.92 1828.91 1192.88 C 1831.09 1187.20 1838.25 1186.46 1843.41 1187.82 C 1847.16 1188.99 1848.85 1192.87 1850.83 1195.93 C 1852.87 1195.41 1854.88 1194.71 1856.87 1193.95 C 1855.26 1190.83 1853.75 1187.45 1850.87 1185.29 C 1843.83 1180.06 1833.50 1180.43 1826.54 1185.57 M 106.52 1182.52 C 106.40 1197.85 106.40 1213.19 106.52 1228.52 C 113.37 1228.59 120.23 1228.86 127.07 1228.45 C 138.57 1227.46 148.37 1216.60 147.68 1204.98 C 148.01 1194.05 139.05 1183.46 128.03 1182.60 C 120.87 1182.15 113.69 1182.39 106.52 1182.52 M 441.54 1182.52 C 441.43 1197.84 441.40 1213.18 441.56 1228.51 C 452.55 1228.70 463.56 1228.70 474.56 1228.51 C 474.61 1226.78 474.66 1225.08 474.70 1223.37 C 465.73 1223.32 456.74 1223.59 447.77 1223.19 C 447.49 1218.26 447.47 1213.32 447.72 1208.40 C 455.32 1208.30 462.93 1208.40 470.54 1208.33 C 470.55 1206.41 470.53 1204.51 470.50 1202.63 C 462.92 1202.51 455.34 1202.62 447.76 1202.55 C 447.49 1197.62 447.49 1192.69 447.67 1187.77 C 456.72 1187.48 465.78 1187.76 474.84 1187.59 C 474.53 1185.92 475.08 1183.92 473.96 1182.55 C 463.17 1182.19 452.34 1182.38 441.54 1182.52 M 494.69 1182.58 C 494.70 1197.92 494.26 1213.28 494.92 1228.61 C 496.82 1228.59 498.72 1228.60 500.62 1228.61 C 500.79 1222.26 500.30 1215.86 501.34 1209.57 C 505.35 1209.55 509.36 1209.55 513.37 1209.62 C 517.65 1215.77 521.33 1222.30 525.40 1228.59 C 527.89 1228.58 530.37 1228.55 532.87 1228.51 C 529.19 1222.12 524.78 1216.19 521.29 1209.70 C 525.46 1207.36 530.15 1204.66 531.50 1199.70 C 534.51 1192.07 528.18 1182.87 520.04 1182.56 C 511.60 1182.20 503.13 1182.32 494.69 1182.58 M 579.93 1182.58 C 581.13 1189.10 583.58 1195.29 585.52 1201.62 C 588.34 1210.56 591.14 1219.50 593.89 1228.46 C 596.05 1228.53 598.20 1228.58 600.37 1228.64 C 604.40 1217.11 607.29 1205.19 611.73 1193.81 C 612.74 1195.65 613.65 1197.56 614.33 1199.57 C 617.32 1209.27 620.02 1219.09 623.71 1228.57 C 625.59 1228.59 627.47 1228.63 629.37 1228.68 C 632.19 1222.24 633.90 1215.41 636.07 1208.75 C 638.73 1200.00 641.90 1191.39 644.10 1182.51 C 642.01 1182.45 639.94 1182.42 637.87 1182.42 C 633.66 1193.60 631.32 1205.46 626.39 1216.36 C 622.16 1205.22 619.51 1193.56 615.27 1182.43 C 613.07 1182.40 610.89 1182.38 608.71 1182.35 C 604.14 1193.47 602.01 1205.45 597.07 1216.42 C 592.87 1205.26 589.91 1193.68 586.07 1182.40 C 584.02 1182.43 581.97 1182.48 579.93 1182.58 M 663.72 1182.58 C 663.75 1197.90 663.19 1213.26 664.01 1228.56 C 675.10 1228.65 686.18 1228.70 697.26 1228.54 C 697.29 1226.83 697.31 1225.14 697.33 1223.46 C 688.31 1223.14 679.26 1223.82 670.26 1223.03 C 669.40 1218.20 669.42 1213.26 670.10 1208.42 C 677.82 1208.19 685.56 1208.68 693.27 1208.04 C 693.26 1206.29 693.24 1204.55 693.21 1202.83 C 685.57 1202.33 677.91 1202.68 670.27 1202.54 C 669.40 1197.68 669.49 1192.72 669.97 1187.84 C 679.04 1187.42 688.12 1187.75 697.20 1187.62 C 697.31 1185.92 697.39 1184.23 697.47 1182.57 C 686.22 1182.28 674.96 1182.26 663.72 1182.58 M 824.39 1182.31 C 824.17 1197.73 824.27 1213.14 824.34 1228.56 C 826.09 1228.60 827.85 1228.66 829.62 1228.75 C 831.29 1216.81 829.74 1204.70 830.50 1192.70 C 839.43 1203.91 847.16 1216.04 855.67 1227.57 C 857.38 1229.34 860.31 1228.31 862.54 1228.68 C 862.77 1213.25 862.68 1197.81 862.59 1182.37 C 860.60 1182.41 858.62 1182.47 856.65 1182.57 C 856.49 1194.44 856.83 1206.31 856.46 1218.17 C 847.66 1207.26 840.11 1195.38 831.85 1184.07 C 830.27 1181.52 826.84 1182.67 824.39 1182.31 M 882.58 1182.53 C 882.48 1197.85 882.46 1213.17 882.59 1228.50 C 893.59 1228.72 904.60 1228.68 915.60 1228.53 C 915.63 1226.79 915.68 1225.07 915.72 1223.36 C 906.77 1223.32 897.82 1223.60 888.89 1223.17 C 888.49 1218.25 888.50 1213.32 888.77 1208.41 C 896.41 1208.25 904.06 1208.53 911.70 1208.19 C 911.68 1206.37 911.67 1204.57 911.68 1202.79 C 904.09 1202.36 896.50 1202.67 888.91 1202.54 C 888.47 1197.64 888.52 1192.72 888.75 1187.81 C 897.72 1187.45 906.69 1187.74 915.66 1187.63 C 915.69 1185.94 915.72 1184.27 915.79 1182.62 C 904.73 1182.18 893.65 1182.35 882.58 1182.53 M 1075.43 1182.50 C 1075.29 1197.85 1075.29 1213.20 1075.43 1228.55 C 1082.28 1228.68 1089.14 1228.60 1096.00 1228.66 C 1099.44 1228.65 1103.08 1228.73 1106.19 1226.99 C 1110.99 1224.66 1114.50 1219.52 1113.62 1214.04 C 1114.04 1209.43 1109.78 1206.79 1106.52 1204.50 C 1108.58 1202.30 1111.26 1200.11 1111.51 1196.89 C 1111.72 1194.08 1111.84 1191.02 1110.29 1188.55 C 1107.96 1184.70 1103.51 1182.44 1099.06 1182.45 C 1091.18 1182.29 1083.30 1182.36 1075.43 1182.50 M 1133.60 1182.53 C 1133.51 1197.85 1133.49 1213.17 1133.62 1228.49 C 1144.60 1228.80 1155.58 1228.54 1166.57 1228.64 C 1166.73 1226.88 1167.02 1225.16 1167.40 1223.46 C 1158.20 1223.18 1148.98 1223.72 1139.79 1223.11 C 1139.51 1218.21 1139.49 1213.30 1139.74 1208.41 C 1147.30 1208.30 1154.87 1208.39 1162.44 1208.33 C 1162.57 1206.66 1162.72 1205.00 1162.87 1203.35 C 1155.21 1201.79 1147.37 1202.96 1139.63 1202.47 C 1139.57 1197.67 1139.57 1192.88 1139.57 1188.10 C 1148.64 1187.13 1157.78 1187.90 1166.89 1187.60 C 1167.09 1185.93 1167.26 1184.26 1167.44 1182.61 C 1156.17 1182.21 1144.88 1182.34 1133.60 1182.53 M 1317.41 1182.58 C 1317.50 1197.92 1317.36 1213.27 1317.49 1228.61 C 1319.47 1228.59 1321.46 1228.58 1323.47 1228.58 C 1323.73 1216.85 1323.09 1205.09 1323.82 1193.37 C 1327.66 1196.53 1330.07 1200.92 1332.96 1204.89 C 1338.10 1212.13 1343.12 1219.48 1348.34 1226.67 C 1349.89 1229.47 1353.47 1228.37 1356.10 1228.72 C 1356.77 1213.35 1356.29 1197.95 1356.35 1182.57 C 1354.41 1182.46 1352.47 1182.37 1350.56 1182.29 C 1350.24 1188.52 1350.37 1194.76 1350.38 1201.00 C 1350.34 1206.58 1350.83 1212.26 1349.35 1217.72 C 1340.94 1206.97 1333.50 1195.50 1325.49 1184.46 C 1323.86 1181.44 1320.17 1182.61 1317.41 1182.58 M 1376.45 1182.50 C 1376.32 1197.85 1376.32 1213.20 1376.46 1228.54 C 1383.32 1228.57 1390.21 1228.88 1397.07 1228.45 C 1406.91 1227.59 1415.37 1219.55 1417.28 1209.96 C 1417.98 1205.14 1417.74 1200.05 1415.64 1195.60 C 1412.41 1188.31 1405.12 1182.79 1397.04 1182.52 C 1390.18 1182.22 1383.31 1182.38 1376.45 1182.50 M 1464.85 1185.01 C 1464.35 1197.00 1464.86 1209.02 1464.62 1221.02 C 1464.77 1223.48 1464.24 1226.42 1465.97 1228.47 C 1471.30 1228.89 1476.65 1228.51 1482.00 1228.64 C 1486.67 1228.54 1491.70 1229.25 1496.00 1226.92 C 1500.78 1224.63 1504.14 1219.33 1503.52 1213.96 C 1503.48 1209.54 1499.50 1206.92 1496.41 1204.47 C 1498.88 1201.48 1501.80 1198.16 1501.48 1193.99 C 1501.30 1188.31 1496.67 1183.30 1491.02 1182.67 C 1484.02 1182.04 1476.97 1182.53 1469.96 1182.36 C 1467.93 1182.38 1464.61 1182.00 1464.85 1185.01 M 1591.39 1182.63 C 1591.45 1197.96 1591.34 1213.28 1591.45 1228.61 C 1593.36 1228.60 1595.27 1228.59 1597.21 1228.61 C 1597.60 1222.28 1597.39 1215.95 1597.49 1209.62 C 1600.66 1209.57 1603.84 1209.45 1607.03 1209.55 C 1608.21 1209.61 1609.69 1209.45 1610.44 1210.66 C 1614.84 1216.17 1617.45 1222.95 1622.11 1228.29 C 1624.22 1228.78 1626.41 1228.56 1628.60 1228.60 C 1625.72 1221.89 1621.33 1216.02 1617.43 1209.91 C 1621.66 1207.55 1626.64 1205.04 1627.83 1199.88 C 1630.87 1191.97 1624.35 1182.79 1616.03 1182.53 C 1607.82 1182.26 1599.59 1182.25 1591.39 1182.63 M 1648.63 1182.56 C 1648.50 1197.86 1648.52 1213.18 1648.62 1228.49 C 1655.43 1228.62 1662.26 1228.84 1669.07 1228.47 C 1679.00 1227.79 1687.78 1219.82 1689.50 1210.04 C 1690.05 1205.14 1690.10 1199.89 1687.84 1195.38 C 1684.42 1188.22 1677.13 1182.69 1669.05 1182.49 C 1662.24 1182.25 1655.43 1182.34 1648.63 1182.56 M 1710.45 1182.49 C 1710.34 1197.83 1710.32 1213.18 1710.46 1228.53 C 1721.45 1228.69 1732.44 1228.66 1743.43 1228.55 C 1743.50 1226.85 1743.59 1225.17 1743.70 1223.50 C 1734.60 1222.84 1725.36 1224.40 1716.39 1222.53 C 1716.43 1217.80 1716.42 1213.09 1716.47 1208.38 C 1724.19 1208.06 1732.00 1209.08 1739.64 1207.62 C 1739.64 1206.56 1739.62 1204.45 1739.61 1203.40 C 1732.06 1201.73 1724.28 1202.92 1716.64 1202.57 C 1716.34 1197.62 1716.35 1192.66 1716.54 1187.72 C 1725.57 1187.48 1734.61 1187.87 1743.64 1187.48 C 1743.57 1185.78 1743.53 1184.11 1743.51 1182.44 C 1732.49 1182.38 1721.46 1182.30 1710.45 1182.49 M 1763.56 1182.53 C 1763.42 1197.86 1763.46 1213.20 1763.54 1228.54 C 1765.49 1228.55 1767.46 1228.55 1769.45 1228.56 C 1769.55 1222.25 1769.49 1215.94 1769.56 1209.64 C 1773.68 1209.79 1778.08 1208.86 1782.06 1210.11 C 1786.98 1215.44 1789.39 1222.63 1794.18 1228.08 C 1796.13 1229.24 1798.67 1228.33 1800.89 1228.54 C 1797.99 1221.85 1793.27 1216.21 1790.09 1209.68 C 1794.22 1207.37 1798.83 1204.68 1800.05 1199.72 C 1802.69 1192.15 1796.99 1183.31 1789.03 1182.60 C 1780.55 1182.13 1772.04 1182.40 1763.56 1182.53 Z" />
<path fill="#000000" opacity="1.00" d=" M 870.82 1001.07 C 879.86 1000.30 889.02 1000.34 897.98 1001.86 C 910.07 1003.84 920.32 1014.19 922.31 1026.26 C 923.14 1033.44 923.00 1041.12 919.57 1047.68 C 914.94 1056.49 906.09 1063.28 896.02 1064.25 C 887.60 1064.91 879.12 1064.57 870.68 1064.43 C 870.42 1051.95 870.64 1039.47 870.57 1027.00 C 870.67 1018.35 870.30 1009.70 870.82 1001.07 Z" />
<path fill="#000000" opacity="1.00" d=" M 979.48 1038.49 C 984.56 1038.59 989.95 1037.55 994.81 1039.44 C 1002.20 1042.75 1002.76 1054.63 995.81 1058.70 C 990.90 1061.57 984.95 1060.29 979.55 1060.40 C 979.30 1053.10 979.37 1045.79 979.48 1038.49 Z" />
<path fill="#000000" opacity="1.00" d=" M 1169.47 1038.53 C 1175.09 1038.54 1181.37 1037.37 1186.38 1040.64 C 1191.84 1044.83 1191.44 1054.06 1185.88 1058.02 C 1181.07 1061.23 1175.01 1060.47 1169.54 1060.38 C 1169.18 1053.10 1169.25 1045.81 1169.47 1038.53 Z" />
<path fill="#000000" opacity="1.00" d=" M 1311.44 1045.47 C 1311.72 1045.49 1312.28 1045.53 1312.56 1045.54 C 1315.95 1052.14 1318.48 1059.21 1320.78 1066.26 C 1314.86 1066.43 1308.94 1066.41 1303.03 1066.33 C 1304.75 1059.02 1307.80 1052.01 1311.44 1045.47 Z" />
<path fill="#000000" opacity="1.00" d=" M 334.59 1187.84 C 343.49 1185.64 352.97 1191.63 355.50 1200.29 C 358.52 1208.80 353.17 1218.95 344.82 1222.01 C 336.21 1226.10 325.29 1220.70 321.92 1212.11 C 317.40 1202.44 324.35 1189.95 334.59 1187.84 Z" />
<path fill="#000000" opacity="1.00" d=" M 1269.59 1187.85 C 1278.50 1185.61 1287.94 1191.65 1290.54 1200.26 C 1293.60 1208.81 1288.20 1218.96 1279.83 1222.03 C 1271.01 1226.19 1259.89 1220.37 1256.71 1211.53 C 1252.66 1201.92 1259.62 1189.99 1269.59 1187.85 Z" />
<path fill="#000000" opacity="1.00" d=" M 1382.54 1187.69 C 1388.44 1187.82 1394.59 1186.86 1400.28 1188.86 C 1406.60 1191.57 1411.58 1197.95 1411.57 1204.99 C 1411.90 1212.83 1406.18 1220.34 1398.67 1222.42 C 1393.45 1223.97 1387.94 1223.25 1382.59 1223.31 C 1382.37 1211.44 1382.44 1199.56 1382.54 1187.69 Z" />
<path fill="#000000" opacity="1.00" d=" M 1543.45 1187.85 C 1552.70 1185.50 1562.56 1191.98 1564.76 1201.11 C 1567.81 1211.70 1558.79 1223.03 1548.01 1223.49 C 1540.17 1223.56 1532.66 1218.11 1530.37 1210.59 C 1526.89 1201.13 1533.86 1189.98 1543.45 1187.85 Z" />
<path fill="#000000" opacity="1.00" d=" M 112.58 1187.73 C 117.65 1187.70 122.80 1187.20 127.82 1188.21 C 135.51 1189.74 141.55 1197.15 141.55 1204.98 C 142.00 1212.71 136.38 1220.26 128.96 1222.29 C 123.53 1223.13 118.00 1222.64 112.53 1222.59 C 112.47 1210.97 112.39 1199.35 112.58 1187.73 Z" />
<path fill="#000000" opacity="1.00" d=" M 501.40 1187.70 C 506.94 1187.72 512.50 1187.34 518.04 1187.84 C 522.26 1188.05 526.08 1191.63 526.36 1195.87 C 526.00 1199.62 523.04 1203.45 519.05 1203.60 C 513.16 1204.01 507.24 1203.68 501.34 1203.67 C 501.22 1198.34 501.20 1193.01 501.40 1187.70 Z" />
<path fill="#000000" opacity="1.00" d=" M 1081.46 1187.87 C 1086.65 1187.62 1091.86 1187.43 1097.06 1187.74 C 1100.09 1187.97 1103.61 1188.76 1105.27 1191.62 C 1106.53 1195.30 1105.22 1199.84 1101.31 1201.23 C 1094.85 1202.97 1088.03 1202.27 1081.45 1201.68 C 1081.43 1197.07 1081.42 1192.47 1081.46 1187.87 Z" />
<path fill="#000000" opacity="1.00" d=" M 1471.37 1187.80 C 1478.26 1187.88 1485.49 1186.61 1492.15 1188.95 C 1497.50 1191.31 1496.05 1200.13 1490.58 1201.42 C 1484.27 1202.84 1477.73 1202.29 1471.36 1201.74 C 1471.32 1197.09 1471.31 1192.44 1471.37 1187.80 Z" />
<path fill="#000000" opacity="1.00" d=" M 1597.54 1187.72 C 1602.72 1187.67 1607.90 1187.46 1613.09 1187.71 C 1616.16 1187.87 1619.73 1188.66 1621.34 1191.62 C 1624.29 1195.96 1621.54 1203.12 1616.05 1203.53 C 1609.88 1204.07 1603.67 1203.68 1597.50 1203.63 C 1597.40 1198.32 1597.38 1193.02 1597.54 1187.72 Z" />
<path fill="#000000" opacity="1.00" d=" M 1654.71 1187.84 C 1660.56 1187.69 1666.61 1186.98 1672.29 1188.80 C 1679.05 1190.99 1684.03 1197.85 1683.69 1205.00 C 1684.38 1212.85 1678.52 1220.50 1670.97 1222.34 C 1665.55 1223.10 1660.06 1222.67 1654.63 1222.53 C 1654.59 1210.96 1654.45 1199.40 1654.71 1187.84 Z" />
<path fill="#000000" opacity="1.00" d=" M 1769.62 1187.77 C 1775.41 1187.70 1781.24 1187.30 1787.03 1187.89 C 1791.06 1188.18 1795.21 1191.58 1794.62 1195.94 C 1794.86 1199.69 1791.81 1203.29 1788.04 1203.56 C 1781.89 1204.05 1775.71 1203.71 1769.57 1203.59 C 1769.48 1198.31 1769.45 1193.04 1769.62 1187.77 Z" />
<path fill="#000000" opacity="1.00" d=" M 1081.59 1206.98 C 1088.55 1206.80 1095.69 1206.01 1102.54 1207.64 C 1108.15 1209.13 1109.61 1217.66 1104.97 1221.02 C 1102.73 1222.81 1099.71 1222.64 1097.02 1222.76 C 1091.84 1222.80 1086.67 1222.76 1081.50 1222.62 C 1081.39 1217.40 1081.37 1212.18 1081.59 1206.98 Z" />
<path fill="#000000" opacity="1.00" d=" M 1471.48 1206.81 C 1478.68 1207.01 1486.19 1205.72 1493.17 1207.99 C 1499.43 1210.51 1498.77 1221.01 1491.98 1222.35 C 1485.16 1223.19 1478.25 1222.61 1471.40 1222.66 C 1471.29 1217.37 1471.25 1212.09 1471.48 1206.81 Z" />
</g>
<g id="#e5f0f9ff">
<path fill="#e5f0f9" opacity="1.00" d=" M 906.67 310.73 C 911.87 294.97 926.50 282.62 942.95 280.37 C 966.62 279.89 990.31 280.23 1013.99 280.18 C 1037.86 279.28 1058.95 301.45 1058.61 324.99 C 1058.54 361.11 1058.77 397.24 1058.49 433.35 C 1025.66 433.38 992.83 433.35 960.00 433.36 C 941.97 433.12 923.93 433.84 905.91 433.05 C 905.22 423.71 905.69 414.35 905.61 405.00 C 905.56 381.00 905.67 357.00 905.55 333.00 C 905.59 325.56 906.17 318.14 906.67 310.73 Z" />
<path fill="#e5f0f9" opacity="1.00" d=" M 765.47 445.47 C 773.46 438.13 784.21 434.08 794.98 433.48 C 831.26 433.41 867.55 433.48 903.84 433.45 C 905.36 447.25 904.25 461.15 904.58 475.00 C 904.51 512.27 904.65 549.54 904.54 586.81 C 884.37 587.49 864.18 586.86 844.00 587.07 C 824.63 586.85 805.25 587.58 785.90 586.64 C 765.66 582.63 749.68 562.68 750.33 541.99 C 750.30 521.33 750.32 500.67 750.32 480.01 C 749.84 466.99 755.85 454.12 765.47 445.47 Z" />
<path fill="#e5f0f9" opacity="1.00" d=" M 1059.13 434.97 C 1069.07 434.14 1079.04 434.75 1089.00 434.61 C 1118.06 434.65 1147.11 434.48 1176.17 434.73 C 1196.39 438.47 1212.06 457.58 1212.58 478.00 C 1212.63 499.00 1212.59 519.99 1212.60 540.99 C 1212.89 550.41 1209.93 559.90 1204.69 567.71 C 1197.98 576.77 1188.43 584.61 1177.09 586.61 C 1162.41 587.53 1147.69 586.89 1133.00 587.07 C 1108.38 586.92 1083.75 587.37 1059.13 586.89 C 1058.41 577.61 1058.90 568.30 1058.82 559.00 C 1058.80 528.67 1058.81 498.33 1058.81 468.00 C 1059.00 456.99 1058.35 445.96 1059.13 434.97 Z" />
<path fill="#e5f0f9" opacity="1.00" d=" M 905.20 588.08 C 914.42 586.77 923.73 587.57 933.00 587.44 C 964.33 587.42 995.67 587.43 1027.00 587.44 C 1037.52 587.55 1048.09 586.86 1058.57 588.21 C 1058.67 624.48 1058.60 660.74 1058.60 697.01 C 1058.70 719.78 1038.86 740.76 1016.06 741.68 C 993.70 741.95 971.32 741.80 948.96 741.76 C 933.83 741.94 919.51 733.17 911.36 720.67 C 908.30 716.13 906.60 710.88 904.77 705.78 C 905.50 697.20 904.87 688.59 905.03 680.00 C 905.18 649.36 904.81 618.72 905.20 588.08 Z" />
</g>
<g id="#b3ddf0ff">
<path fill="#b3ddf0" opacity="1.00" d=" M 903.65 330.00 C 903.54 323.48 904.23 316.82 906.67 310.73 C 906.17 318.14 905.59 325.56 905.55 333.00 C 905.67 357.00 905.56 381.00 905.61 405.00 C 905.69 414.35 905.22 423.71 905.91 433.05 C 923.93 433.84 941.97 433.12 960.00 433.36 C 992.83 433.35 1025.66 433.38 1058.49 433.35 C 1094.67 433.46 1130.84 433.35 1167.02 433.41 C 1170.12 433.32 1173.18 433.91 1176.17 434.73 C 1147.11 434.48 1118.06 434.65 1089.00 434.61 C 1079.04 434.75 1069.07 434.14 1059.13 434.97 C 1058.35 445.96 1059.00 456.99 1058.81 468.00 C 1058.81 498.33 1058.80 528.67 1058.82 559.00 C 1058.90 568.30 1058.41 577.61 1059.13 586.89 C 1083.75 587.37 1108.38 586.92 1133.00 587.07 C 1147.69 586.89 1162.41 587.53 1177.09 586.61 C 1168.60 588.95 1159.70 588.17 1151.00 588.30 C 1120.19 588.24 1089.37 588.43 1058.57 588.21 C 1048.09 586.86 1037.52 587.55 1027.00 587.44 C 995.67 587.43 964.33 587.42 933.00 587.44 C 923.73 587.57 914.42 586.77 905.20 588.08 C 904.81 618.72 905.18 649.36 905.03 680.00 C 904.87 688.59 905.50 697.20 904.77 705.78 C 903.19 696.28 903.75 686.60 903.67 677.00 C 903.67 647.44 903.66 617.88 903.67 588.33 C 872.44 588.27 841.22 588.32 810.00 588.30 C 801.95 588.23 793.73 588.83 785.90 586.64 C 805.25 587.58 824.63 586.85 844.00 587.07 C 864.18 586.86 884.37 587.49 904.54 586.81 C 904.65 549.54 904.51 512.27 904.58 475.00 C 904.25 461.15 905.36 447.25 903.84 433.45 C 903.42 398.97 903.81 364.48 903.65 330.00 Z" />
<path fill="#b3ddf0" opacity="1.00" d=" M 1238.25 474.82 C 1242.61 478.51 1244.40 484.16 1247.05 489.05 C 1252.41 499.81 1256.28 511.30 1258.59 523.09 C 1261.73 537.50 1260.89 552.37 1260.45 567.00 C 1258.53 585.64 1253.30 603.83 1246.25 621.14 C 1230.42 659.01 1206.31 692.78 1179.51 723.62 C 1166.18 739.51 1151.17 753.87 1136.51 768.51 C 1089.12 813.72 1036.60 853.30 981.57 888.73 C 981.31 859.35 981.58 829.96 981.43 800.58 C 999.21 792.34 1017.36 784.85 1034.87 776.01 C 1069.05 758.70 1102.09 738.85 1132.32 715.24 C 1149.35 701.44 1166.16 687.18 1180.67 670.67 C 1206.46 642.60 1227.17 609.15 1237.03 572.11 C 1239.99 560.28 1242.62 548.22 1242.69 535.98 C 1243.02 524.65 1242.91 513.31 1242.34 502.00 C 1241.28 495.32 1240.57 488.56 1238.93 481.98 C 1238.32 479.64 1238.26 477.20 1238.25 474.82 Z" />
</g>
<g id="#4191c4ff">
<path fill="#4191c4" opacity="1.00" d=" M 794.54 332.31 C 807.80 329.25 821.51 330.31 834.99 330.45 C 850.93 332.02 866.61 336.08 881.51 341.94 C 881.54 361.95 881.69 381.97 881.43 401.98 C 870.69 397.20 860.07 391.73 848.42 389.54 C 835.84 386.37 822.78 387.19 809.95 387.46 C 775.62 391.35 743.77 412.59 727.00 442.82 C 718.49 457.90 713.38 474.80 711.55 491.99 C 711.12 502.31 711.15 512.67 711.56 523.00 C 713.78 543.75 719.69 564.00 728.00 583.10 C 742.42 614.15 761.42 642.83 781.99 670.11 C 795.69 687.65 809.51 705.11 824.20 721.84 C 843.72 743.93 863.24 766.04 883.89 787.09 C 890.95 795.02 898.60 802.39 905.97 810.03 C 921.96 827.31 939.25 843.35 955.28 860.59 C 939.50 855.88 926.52 845.29 914.16 834.83 C 883.96 808.08 854.42 780.61 825.12 752.88 C 798.40 726.58 771.41 700.44 747.30 671.67 C 736.74 659.84 726.67 647.59 717.43 634.70 C 697.64 607.98 680.44 578.62 672.18 546.16 C 668.80 533.04 666.15 519.59 666.24 505.99 C 666.17 496.33 666.05 486.66 666.52 477.00 C 670.11 440.13 685.91 404.39 711.49 377.49 C 733.60 354.33 762.93 337.90 794.54 332.31 Z" />
<path fill="#4191c4" opacity="1.00" d=" M 1081.49 346.87 C 1099.84 343.69 1118.30 340.31 1137.00 340.43 C 1160.11 339.94 1183.40 343.44 1205.22 351.18 C 1223.82 358.13 1241.32 368.50 1255.51 382.49 C 1268.98 395.33 1279.17 411.32 1286.77 428.23 C 1294.28 446.50 1299.11 466.16 1298.77 486.01 C 1298.73 496.99 1299.18 508.07 1297.04 518.91 C 1295.19 529.57 1292.74 540.24 1288.51 550.23 C 1287.25 545.58 1287.61 540.75 1287.42 536.00 C 1286.00 516.73 1282.12 497.49 1274.45 479.68 C 1267.04 462.16 1256.15 445.90 1241.81 433.30 C 1219.17 412.93 1189.34 401.61 1159.24 398.76 C 1147.56 398.12 1135.82 396.83 1124.14 398.35 C 1109.70 399.15 1095.57 402.28 1081.41 404.93 C 1081.36 385.58 1081.20 366.22 1081.49 346.87 Z" />
</g>
<g id="#3a6ab0ff">
<path fill="#3a6ab0" opacity="1.00" d=" M 582.31 560.55 C 593.66 563.84 602.18 572.86 608.20 582.65 C 612.18 589.36 615.48 596.47 618.41 603.70 C 620.33 608.23 621.15 613.26 624.03 617.36 C 625.44 605.20 626.77 593.03 627.80 580.83 C 634.84 583.38 639.28 590.07 642.26 596.61 C 646.58 606.85 648.60 617.94 649.43 628.99 C 650.23 653.49 649.30 678.01 648.45 702.49 C 643.49 697.98 640.36 691.97 636.76 686.42 C 622.97 663.33 611.71 638.75 596.71 616.37 C 593.70 611.75 589.11 607.80 588.28 602.08 C 586.42 591.07 584.53 580.07 582.80 569.04 C 582.39 566.22 582.33 563.38 582.31 560.55 Z" />
<path fill="#3a6ab0" opacity="1.00" d=" M 1363.43 571.45 C 1368.33 566.37 1374.42 562.16 1381.41 560.67 C 1379.90 572.16 1377.89 583.57 1375.96 595.00 C 1375.13 599.48 1375.10 604.44 1372.24 608.23 C 1355.29 630.60 1343.97 656.48 1329.57 680.43 C 1324.93 688.01 1321.06 696.30 1314.55 702.51 C 1314.62 691.65 1313.41 680.85 1313.53 670.00 C 1313.37 655.66 1312.95 641.32 1313.60 626.99 C 1314.66 616.15 1316.63 605.19 1321.37 595.30 C 1324.44 589.32 1328.74 583.42 1335.15 580.77 C 1336.51 592.73 1337.23 604.77 1339.07 616.67 C 1342.19 610.91 1343.76 604.49 1346.55 598.57 C 1350.90 588.84 1355.87 579.11 1363.43 571.45 Z" />
<path fill="#3a6ab0" opacity="1.00" d=" M 531.84 583.11 C 543.81 582.51 554.52 589.18 563.03 596.95 C 578.25 610.68 589.06 628.38 598.98 646.11 C 607.78 661.42 615.94 677.09 624.81 692.36 C 629.96 700.64 634.96 709.18 641.92 716.11 C 654.20 729.03 669.95 737.77 685.22 746.64 C 695.38 752.34 705.30 758.54 715.86 763.48 C 713.68 751.43 707.55 740.60 701.82 729.94 C 695.73 719.14 688.44 708.96 683.74 697.43 C 677.78 682.70 677.33 666.27 680.79 650.88 C 686.26 655.90 690.62 661.94 695.67 667.35 C 714.16 686.85 733.58 705.42 752.63 724.36 C 770.43 741.96 786.58 761.51 798.25 783.76 C 814.56 814.00 824.14 847.32 831.54 880.71 C 832.78 885.85 834.21 890.97 834.74 896.26 C 827.65 892.96 821.60 887.91 814.95 883.86 C 775.79 858.50 732.00 841.58 691.70 818.25 C 680.36 811.89 669.37 804.87 659.07 796.93 C 646.54 786.92 634.17 776.53 623.98 764.08 C 614.18 752.44 606.11 739.43 599.39 725.80 C 591.98 710.73 584.25 695.81 577.23 680.54 C 563.60 653.54 551.09 626.00 538.39 598.56 C 536.07 593.47 533.42 588.50 531.84 583.11 Z" />
<path fill="#3a6ab0" opacity="1.00" d=" M 1413.24 587.39 C 1418.72 584.25 1425.05 583.07 1431.31 583.12 C 1428.57 591.15 1424.59 598.67 1421.26 606.46 C 1411.75 627.42 1401.39 647.97 1391.60 668.79 C 1382.28 687.25 1373.63 706.03 1364.31 724.49 C 1355.59 742.39 1344.53 759.29 1330.52 773.50 C 1320.90 783.27 1310.41 792.18 1299.41 800.35 C 1273.85 818.63 1245.41 832.24 1217.40 846.25 C 1208.59 850.86 1199.33 854.54 1190.71 859.52 C 1175.70 866.95 1161.17 875.31 1146.95 884.16 C 1140.69 888.07 1134.87 892.69 1128.32 896.11 C 1129.01 886.80 1131.59 877.77 1133.65 868.70 C 1142.92 830.01 1156.29 791.46 1179.94 759.05 C 1190.64 743.97 1203.74 730.82 1216.82 717.82 C 1235.05 700.09 1253.31 682.36 1270.66 663.75 C 1274.57 659.50 1278.07 654.87 1282.25 650.87 C 1284.61 662.01 1285.38 673.61 1282.90 684.81 C 1279.19 704.55 1265.78 720.24 1256.77 737.66 C 1252.73 745.80 1248.39 754.08 1247.14 763.19 C 1254.56 759.84 1261.51 755.54 1268.65 751.64 C 1284.96 741.88 1302.28 733.35 1316.53 720.55 C 1329.76 708.49 1338.34 692.52 1347.00 677.10 C 1360.71 653.11 1372.25 627.54 1390.49 606.49 C 1397.31 599.30 1404.33 591.99 1413.24 587.39 Z" />
<path fill="#3a6ab0" opacity="1.00" d=" M 167.87 1182.42 C 169.69 1182.38 171.51 1182.34 173.34 1182.31 C 173.80 1197.73 173.53 1213.17 173.48 1228.60 C 171.51 1228.57 169.54 1228.54 167.58 1228.51 C 167.69 1213.15 167.13 1197.76 167.87 1182.42 Z" />
<path fill="#3a6ab0" opacity="1.00" d=" M 198.94 1185.99 C 205.97 1180.34 217.22 1179.76 224.16 1185.86 C 226.68 1188.09 228.19 1191.16 229.77 1194.08 C 227.86 1194.57 225.84 1196.18 223.85 1195.34 C 221.26 1192.61 219.56 1188.44 215.50 1187.63 C 211.59 1186.96 206.93 1186.95 203.90 1189.91 C 201.93 1191.71 200.41 1194.97 202.48 1197.30 C 205.83 1201.53 211.68 1201.94 216.51 1203.37 C 221.23 1204.70 227.15 1206.02 229.15 1211.12 C 230.15 1215.38 230.21 1220.62 226.85 1223.92 C 219.57 1230.83 207.01 1231.22 199.42 1224.62 C 196.69 1222.27 195.02 1219.03 193.28 1215.96 C 195.24 1215.12 197.19 1214.27 199.13 1213.40 C 201.20 1216.71 202.90 1220.79 206.73 1222.44 C 211.65 1224.58 218.17 1224.10 221.98 1220.04 C 224.10 1217.80 224.50 1213.24 221.40 1211.66 C 215.24 1208.04 207.65 1208.22 201.40 1204.78 C 194.33 1201.62 193.11 1190.86 198.94 1185.99 Z" />
<path fill="#3a6ab0" opacity="1.00" d=" M 258.14 1187.06 C 264.86 1181.49 274.68 1179.80 282.76 1183.25 C 287.91 1185.11 291.85 1189.17 294.80 1193.66 C 293.01 1194.41 291.25 1195.36 289.31 1195.69 C 285.20 1192.43 281.57 1187.69 275.83 1187.57 C 264.29 1185.68 253.26 1197.66 256.13 1208.96 C 257.90 1217.83 267.02 1224.55 276.00 1223.32 C 281.31 1222.41 285.42 1218.70 289.19 1215.12 C 290.69 1216.27 294.67 1216.73 293.26 1219.35 C 288.60 1226.08 280.19 1229.90 272.06 1229.35 C 263.24 1228.53 254.68 1222.96 251.43 1214.54 C 247.23 1205.20 250.25 1193.47 258.14 1187.06 Z" />
<path fill="#3a6ab0" opacity="1.00" d=" M 333.29 1182.04 C 340.20 1180.44 347.71 1182.29 353.31 1186.58 C 358.20 1190.28 361.29 1196.05 362.25 1202.05 C 363.38 1209.42 360.54 1217.08 355.43 1222.41 C 349.72 1228.13 340.96 1230.59 333.11 1228.73 C 326.66 1227.33 320.78 1223.20 317.54 1217.42 C 314.22 1211.76 313.59 1204.75 315.30 1198.48 C 317.60 1190.18 324.92 1183.74 333.29 1182.04 M 334.59 1187.84 C 324.35 1189.95 317.40 1202.44 321.92 1212.11 C 325.29 1220.70 336.21 1226.10 344.82 1222.01 C 353.17 1218.95 358.52 1208.80 355.50 1200.29 C 352.97 1191.63 343.49 1185.64 334.59 1187.84 Z" />
<path fill="#3a6ab0" opacity="1.00" d=" M 376.98 1182.48 C 379.15 1182.43 381.32 1182.42 383.50 1182.43 C 387.26 1190.62 390.35 1199.10 393.84 1207.41 C 395.39 1211.44 396.97 1215.50 399.41 1219.11 C 404.98 1207.06 409.68 1194.62 414.91 1182.43 C 417.02 1182.43 419.14 1182.46 421.27 1182.54 C 418.88 1190.29 415.21 1197.55 412.24 1205.08 C 408.85 1212.87 405.95 1220.88 402.24 1228.54 C 400.34 1228.59 398.44 1228.66 396.55 1228.77 C 392.35 1221.36 389.79 1213.19 386.31 1205.44 C 383.36 1197.72 379.25 1190.45 376.98 1182.48 Z" />
<path fill="#3a6ab0" opacity="1.00" d=" M 717.52 1182.51 C 719.49 1182.47 721.47 1182.47 723.45 1182.49 C 723.57 1195.93 723.44 1209.37 723.52 1222.82 C 732.52 1224.00 741.64 1223.12 750.69 1223.39 C 750.64 1225.08 750.59 1226.76 750.55 1228.48 C 739.55 1228.74 728.54 1228.68 717.55 1228.51 C 717.40 1213.18 717.45 1197.84 717.52 1182.51 Z" />
<path fill="#3a6ab0" opacity="1.00" d=" M 770.63 1182.54 C 772.61 1182.45 774.62 1182.40 776.62 1182.34 C 776.84 1195.95 776.17 1209.59 776.98 1223.18 C 785.89 1223.59 794.81 1223.33 803.73 1223.36 C 803.68 1225.07 803.63 1226.78 803.60 1228.53 C 792.60 1228.67 781.59 1228.74 770.60 1228.48 C 770.49 1213.17 770.43 1197.85 770.63 1182.54 Z" />
<path fill="#3a6ab0" opacity="1.00" d=" M 942.07 1185.14 C 948.43 1180.98 957.22 1180.09 963.86 1184.13 C 967.57 1186.34 969.88 1190.12 971.88 1193.83 C 969.98 1194.55 967.98 1196.25 965.87 1195.36 C 963.46 1192.80 962.04 1188.91 958.40 1187.82 C 953.43 1186.52 946.91 1187.17 944.18 1192.14 C 942.26 1195.23 944.83 1198.80 947.72 1200.09 C 953.77 1202.94 960.76 1203.05 966.70 1206.23 C 973.16 1209.36 973.29 1219.02 968.98 1223.96 C 962.85 1230.14 952.67 1230.76 945.07 1227.09 C 940.44 1224.87 937.77 1220.28 935.40 1215.96 C 937.35 1215.13 939.29 1214.30 941.23 1213.45 C 943.45 1216.96 945.54 1221.11 949.65 1222.72 C 954.97 1224.77 962.26 1223.66 965.29 1218.39 C 965.73 1216.23 966.13 1213.33 963.92 1212.00 C 957.13 1207.49 948.02 1208.48 941.47 1203.50 C 935.76 1199.00 936.11 1189.25 942.07 1185.14 Z" />
<path fill="#3a6ab0" opacity="1.00" d=" M 997.59 1185.64 C 1004.08 1180.84 1013.65 1179.94 1020.52 1184.46 C 1023.73 1186.57 1025.63 1190.02 1027.54 1193.25 C 1026.00 1194.24 1024.47 1195.23 1022.94 1196.23 C 1020.12 1193.13 1018.06 1188.59 1013.63 1187.59 C 1009.68 1186.97 1005.04 1187.01 1001.96 1189.92 C 999.75 1191.71 1000.02 1194.94 1000.61 1197.44 C 1002.33 1199.91 1005.39 1200.87 1008.15 1201.71 C 1013.02 1203.09 1018.15 1203.82 1022.70 1206.19 C 1027.33 1208.54 1029.66 1214.62 1027.65 1219.45 C 1025.73 1225.63 1019.09 1228.78 1013.06 1229.30 C 1007.32 1229.60 1001.08 1228.26 996.91 1224.07 C 994.46 1221.80 993.21 1218.63 991.89 1215.66 C 993.56 1215.11 995.24 1214.53 997.00 1214.22 C 1000.08 1216.81 1001.63 1221.17 1005.65 1222.68 C 1010.96 1224.78 1018.32 1223.72 1021.35 1218.41 C 1021.79 1216.22 1022.19 1213.29 1019.95 1211.96 C 1013.15 1207.47 1004.06 1208.43 997.51 1203.46 C 992.09 1199.07 992.15 1189.98 997.59 1185.64 Z" />
<path fill="#3a6ab0" opacity="1.00" d=" M 1186.89 1182.52 C 1189.38 1182.45 1191.89 1182.43 1194.40 1182.47 C 1198.96 1189.35 1202.96 1196.61 1208.09 1203.09 C 1213.34 1196.73 1217.19 1189.39 1221.68 1182.51 C 1224.37 1182.44 1227.07 1182.46 1229.77 1182.53 C 1224.39 1190.58 1219.20 1198.76 1213.78 1206.78 C 1208.95 1213.23 1212.99 1221.74 1210.47 1228.95 C 1208.80 1228.55 1206.87 1228.89 1205.43 1227.88 C 1205.01 1223.23 1205.58 1218.56 1205.20 1213.92 C 1204.71 1209.28 1201.47 1205.67 1199.13 1201.84 C 1195.07 1195.38 1190.44 1189.27 1186.89 1182.52 Z" />
<path fill="#3a6ab0" opacity="1.00" d=" M 1268.32 1182.05 C 1274.33 1180.64 1280.77 1181.90 1286.09 1184.95 C 1292.46 1188.70 1296.60 1195.70 1297.40 1202.99 C 1298.19 1210.33 1295.20 1217.84 1289.97 1222.96 C 1282.80 1229.55 1271.56 1231.18 1262.79 1226.98 C 1252.05 1221.97 1246.58 1208.21 1250.86 1197.16 C 1253.53 1189.51 1260.36 1183.60 1268.32 1182.05 M 1269.59 1187.85 C 1259.62 1189.99 1252.66 1201.92 1256.71 1211.53 C 1259.89 1220.37 1271.01 1226.19 1279.83 1222.03 C 1288.20 1218.96 1293.60 1208.81 1290.54 1200.26 C 1287.94 1191.65 1278.50 1185.61 1269.59 1187.85 Z" />
<path fill="#3a6ab0" opacity="1.00" d=" M 1542.30 1182.04 C 1548.31 1180.65 1554.76 1181.90 1560.08 1184.96 C 1568.11 1189.73 1572.65 1199.65 1571.24 1208.85 C 1569.95 1216.25 1565.49 1223.35 1558.59 1226.66 C 1553.52 1229.45 1547.50 1228.94 1541.95 1228.55 C 1530.74 1226.59 1522.49 1215.18 1523.42 1203.96 C 1523.60 1193.41 1532.06 1184.04 1542.30 1182.04 M 1543.45 1187.85 C 1533.86 1189.98 1526.89 1201.13 1530.37 1210.59 C 1532.66 1218.11 1540.17 1223.56 1548.01 1223.49 C 1558.79 1223.03 1567.81 1211.70 1564.76 1201.11 C 1562.56 1191.98 1552.70 1185.50 1543.45 1187.85 Z" />
<path fill="#3a6ab0" opacity="1.00" d=" M 1826.54 1185.57 C 1833.50 1180.43 1843.83 1180.06 1850.87 1185.29 C 1853.75 1187.45 1855.26 1190.83 1856.87 1193.95 C 1854.88 1194.71 1852.87 1195.41 1850.83 1195.93 C 1848.85 1192.87 1847.16 1188.99 1843.41 1187.82 C 1838.25 1186.46 1831.09 1187.20 1828.91 1192.88 C 1827.50 1195.92 1830.11 1198.83 1832.72 1200.08 C 1838.99 1203.04 1846.31 1203.07 1852.35 1206.62 C 1857.94 1209.73 1857.91 1217.91 1854.91 1222.81 C 1849.17 1230.06 1838.03 1231.00 1830.09 1227.07 C 1825.51 1224.85 1822.47 1220.49 1820.89 1215.78 C 1822.57 1215.15 1824.29 1214.55 1826.03 1213.99 C 1828.62 1217.44 1831.10 1221.52 1835.41 1223.01 C 1840.63 1224.63 1847.35 1223.39 1850.31 1218.39 C 1850.79 1216.23 1851.15 1213.31 1848.92 1212.01 C 1842.15 1207.47 1833.05 1208.45 1826.48 1203.53 C 1820.94 1199.22 1821.10 1189.88 1826.54 1185.57 Z" />
<path fill="#3a6ab0" opacity="1.00" d=" M 106.52 1182.52 C 113.69 1182.39 120.87 1182.15 128.03 1182.60 C 139.05 1183.46 148.01 1194.05 147.68 1204.98 C 148.37 1216.60 138.57 1227.46 127.07 1228.45 C 120.23 1228.86 113.37 1228.59 106.52 1228.52 C 106.40 1213.19 106.40 1197.85 106.52 1182.52 M 112.58 1187.73 C 112.39 1199.35 112.47 1210.97 112.53 1222.59 C 118.00 1222.64 123.53 1223.13 128.96 1222.29 C 136.38 1220.26 142.00 1212.71 141.55 1204.98 C 141.55 1197.15 135.51 1189.74 127.82 1188.21 C 122.80 1187.20 117.65 1187.70 112.58 1187.73 Z" />
<path fill="#3a6ab0" opacity="1.00" d=" M 441.54 1182.52 C 452.34 1182.38 463.17 1182.19 473.96 1182.55 C 475.08 1183.92 474.53 1185.92 474.84 1187.59 C 465.78 1187.76 456.72 1187.48 447.67 1187.77 C 447.49 1192.69 447.49 1197.62 447.76 1202.55 C 455.34 1202.62 462.92 1202.51 470.50 1202.63 C 470.53 1204.51 470.55 1206.41 470.54 1208.33 C 462.93 1208.40 455.32 1208.30 447.72 1208.40 C 447.47 1213.32 447.49 1218.26 447.77 1223.19 C 456.74 1223.59 465.73 1223.32 474.70 1223.37 C 474.66 1225.08 474.61 1226.78 474.56 1228.51 C 463.56 1228.70 452.55 1228.70 441.56 1228.51 C 441.40 1213.18 441.43 1197.84 441.54 1182.52 Z" />
<path fill="#3a6ab0" opacity="1.00" d=" M 494.69 1182.58 C 503.13 1182.32 511.60 1182.20 520.04 1182.56 C 528.18 1182.87 534.51 1192.07 531.50 1199.70 C 530.15 1204.66 525.46 1207.36 521.29 1209.70 C 524.78 1216.19 529.19 1222.12 532.87 1228.51 C 530.37 1228.55 527.89 1228.58 525.40 1228.59 C 521.33 1222.30 517.65 1215.77 513.37 1209.62 C 509.36 1209.55 505.35 1209.55 501.34 1209.57 C 500.30 1215.86 500.79 1222.26 500.62 1228.61 C 498.72 1228.60 496.82 1228.59 494.92 1228.61 C 494.26 1213.28 494.70 1197.92 494.69 1182.58 M 501.40 1187.70 C 501.20 1193.01 501.22 1198.34 501.34 1203.67 C 507.24 1203.68 513.16 1204.01 519.05 1203.60 C 523.04 1203.45 526.00 1199.62 526.36 1195.87 C 526.08 1191.63 522.26 1188.05 518.04 1187.84 C 512.50 1187.34 506.94 1187.72 501.40 1187.70 Z" />
<path fill="#3a6ab0" opacity="1.00" d=" M 579.93 1182.58 C 581.97 1182.48 584.02 1182.43 586.07 1182.40 C 589.91 1193.68 592.87 1205.26 597.07 1216.42 C 602.01 1205.45 604.14 1193.47 608.71 1182.35 C 610.89 1182.38 613.07 1182.40 615.27 1182.43 C 619.51 1193.56 622.16 1205.22 626.39 1216.36 C 631.32 1205.46 633.66 1193.60 637.87 1182.42 C 639.94 1182.42 642.01 1182.45 644.10 1182.51 C 641.90 1191.39 638.73 1200.00 636.07 1208.75 C 633.90 1215.41 632.19 1222.24 629.37 1228.68 C 627.47 1228.63 625.59 1228.59 623.71 1228.57 C 620.02 1219.09 617.32 1209.27 614.33 1199.57 C 613.65 1197.56 612.74 1195.65 611.73 1193.81 C 607.29 1205.19 604.40 1217.11 600.37 1228.64 C 598.20 1228.58 596.05 1228.53 593.89 1228.46 C 591.14 1219.50 588.34 1210.56 585.52 1201.62 C 583.58 1195.29 581.13 1189.10 579.93 1182.58 Z" />
<path fill="#3a6ab0" opacity="1.00" d=" M 663.72 1182.58 C 674.96 1182.26 686.22 1182.28 697.47 1182.57 C 697.39 1184.23 697.31 1185.92 697.20 1187.62 C 688.12 1187.75 679.04 1187.42 669.97 1187.84 C 669.49 1192.72 669.40 1197.68 670.27 1202.54 C 677.91 1202.68 685.57 1202.33 693.21 1202.83 C 693.24 1204.55 693.26 1206.29 693.27 1208.04 C 685.56 1208.68 677.82 1208.19 670.10 1208.42 C 669.42 1213.26 669.40 1218.20 670.26 1223.03 C 679.26 1223.82 688.31 1223.14 697.33 1223.46 C 697.31 1225.14 697.29 1226.83 697.26 1228.54 C 686.18 1228.70 675.10 1228.65 664.01 1228.56 C 663.19 1213.26 663.75 1197.90 663.72 1182.58 Z" />
<path fill="#3a6ab0" opacity="1.00" d=" M 824.39 1182.31 C 826.84 1182.67 830.27 1181.52 831.85 1184.07 C 840.11 1195.38 847.66 1207.26 856.46 1218.17 C 856.83 1206.31 856.49 1194.44 856.65 1182.57 C 858.62 1182.47 860.60 1182.41 862.59 1182.37 C 862.68 1197.81 862.77 1213.25 862.54 1228.68 C 860.31 1228.31 857.38 1229.34 855.67 1227.57 C 847.16 1216.04 839.43 1203.91 830.50 1192.70 C 829.74 1204.70 831.29 1216.81 829.62 1228.75 C 827.85 1228.66 826.09 1228.60 824.34 1228.56 C 824.27 1213.14 824.17 1197.73 824.39 1182.31 Z" />
<path fill="#3a6ab0" opacity="1.00" d=" M 882.58 1182.53 C 893.65 1182.35 904.73 1182.18 915.79 1182.62 C 915.72 1184.27 915.69 1185.94 915.66 1187.63 C 906.69 1187.74 897.72 1187.45 888.75 1187.81 C 888.52 1192.72 888.47 1197.64 888.91 1202.54 C 896.50 1202.67 904.09 1202.36 911.68 1202.79 C 911.67 1204.57 911.68 1206.37 911.70 1208.19 C 904.06 1208.53 896.41 1208.25 888.77 1208.41 C 888.50 1213.32 888.49 1218.25 888.89 1223.17 C 897.82 1223.60 906.77 1223.32 915.72 1223.36 C 915.68 1225.07 915.63 1226.79 915.60 1228.53 C 904.60 1228.68 893.59 1228.72 882.59 1228.50 C 882.46 1213.17 882.48 1197.85 882.58 1182.53 Z" />
<path fill="#3a6ab0" opacity="1.00" d=" M 1075.43 1182.50 C 1083.30 1182.36 1091.18 1182.29 1099.06 1182.45 C 1103.51 1182.44 1107.96 1184.70 1110.29 1188.55 C 1111.84 1191.02 1111.72 1194.08 1111.51 1196.89 C 1111.26 1200.11 1108.58 1202.30 1106.52 1204.50 C 1109.78 1206.79 1114.04 1209.43 1113.62 1214.04 C 1114.50 1219.52 1110.99 1224.66 1106.19 1226.99 C 1103.08 1228.73 1099.44 1228.65 1096.00 1228.66 C 1089.14 1228.60 1082.28 1228.68 1075.43 1228.55 C 1075.29 1213.20 1075.29 1197.85 1075.43 1182.50 M 1081.46 1187.87 C 1081.42 1192.47 1081.43 1197.07 1081.45 1201.68 C 1088.03 1202.27 1094.85 1202.97 1101.31 1201.23 C 1105.22 1199.84 1106.53 1195.30 1105.27 1191.62 C 1103.61 1188.76 1100.09 1187.97 1097.06 1187.74 C 1091.86 1187.43 1086.65 1187.62 1081.46 1187.87 M 1081.59 1206.98 C 1081.37 1212.18 1081.39 1217.40 1081.50 1222.62 C 1086.67 1222.76 1091.84 1222.80 1097.02 1222.76 C 1099.71 1222.64 1102.73 1222.81 1104.97 1221.02 C 1109.61 1217.66 1108.15 1209.13 1102.54 1207.64 C 1095.69 1206.01 1088.55 1206.80 1081.59 1206.98 Z" />
<path fill="#3a6ab0" opacity="1.00" d=" M 1133.60 1182.53 C 1144.88 1182.34 1156.17 1182.21 1167.44 1182.61 C 1167.26 1184.26 1167.09 1185.93 1166.89 1187.60 C 1157.78 1187.90 1148.64 1187.13 1139.57 1188.10 C 1139.57 1192.88 1139.57 1197.67 1139.63 1202.47 C 1147.37 1202.96 1155.21 1201.79 1162.87 1203.35 C 1162.72 1205.00 1162.57 1206.66 1162.44 1208.33 C 1154.87 1208.39 1147.30 1208.30 1139.74 1208.41 C 1139.49 1213.30 1139.51 1218.21 1139.79 1223.11 C 1148.98 1223.72 1158.20 1223.18 1167.40 1223.46 C 1167.02 1225.16 1166.73 1226.88 1166.57 1228.64 C 1155.58 1228.54 1144.60 1228.80 1133.62 1228.49 C 1133.49 1213.17 1133.51 1197.85 1133.60 1182.53 Z" />
<path fill="#3a6ab0" opacity="1.00" d=" M 1317.41 1182.58 C 1320.17 1182.61 1323.86 1181.44 1325.49 1184.46 C 1333.50 1195.50 1340.94 1206.97 1349.35 1217.72 C 1350.83 1212.26 1350.34 1206.58 1350.38 1201.00 C 1350.37 1194.76 1350.24 1188.52 1350.56 1182.29 C 1352.47 1182.37 1354.41 1182.46 1356.35 1182.57 C 1356.29 1197.95 1356.77 1213.35 1356.10 1228.72 C 1353.47 1228.37 1349.89 1229.47 1348.34 1226.67 C 1343.12 1219.48 1338.10 1212.13 1332.96 1204.89 C 1330.07 1200.92 1327.66 1196.53 1323.82 1193.37 C 1323.09 1205.09 1323.73 1216.85 1323.47 1228.58 C 1321.46 1228.58 1319.47 1228.59 1317.49 1228.61 C 1317.36 1213.27 1317.50 1197.92 1317.41 1182.58 Z" />
<path fill="#3a6ab0" opacity="1.00" d=" M 1376.45 1182.50 C 1383.31 1182.38 1390.18 1182.22 1397.04 1182.52 C 1405.12 1182.79 1412.41 1188.31 1415.64 1195.60 C 1417.74 1200.05 1417.98 1205.14 1417.28 1209.96 C 1415.37 1219.55 1406.91 1227.59 1397.07 1228.45 C 1390.21 1228.88 1383.32 1228.57 1376.46 1228.54 C 1376.32 1213.20 1376.32 1197.85 1376.45 1182.50 M 1382.54 1187.69 C 1382.44 1199.56 1382.37 1211.44 1382.59 1223.31 C 1387.94 1223.25 1393.45 1223.97 1398.67 1222.42 C 1406.18 1220.34 1411.90 1212.83 1411.57 1204.99 C 1411.58 1197.95 1406.60 1191.57 1400.28 1188.86 C 1394.59 1186.86 1388.44 1187.82 1382.54 1187.69 Z" />
<path fill="#3a6ab0" opacity="1.00" d=" M 1464.85 1185.01 C 1464.61 1182.00 1467.93 1182.38 1469.96 1182.36 C 1476.97 1182.53 1484.02 1182.04 1491.02 1182.67 C 1496.67 1183.30 1501.30 1188.31 1501.48 1193.99 C 1501.80 1198.16 1498.88 1201.48 1496.41 1204.47 C 1499.50 1206.92 1503.48 1209.54 1503.52 1213.96 C 1504.14 1219.33 1500.78 1224.63 1496.00 1226.92 C 1491.70 1229.25 1486.67 1228.54 1482.00 1228.64 C 1476.65 1228.51 1471.30 1228.89 1465.97 1228.47 C 1464.24 1226.42 1464.77 1223.48 1464.62 1221.02 C 1464.86 1209.02 1464.35 1197.00 1464.85 1185.01 M 1471.37 1187.80 C 1471.31 1192.44 1471.32 1197.09 1471.36 1201.74 C 1477.73 1202.29 1484.27 1202.84 1490.58 1201.42 C 1496.05 1200.13 1497.50 1191.31 1492.15 1188.95 C 1485.49 1186.61 1478.26 1187.88 1471.37 1187.80 M 1471.48 1206.81 C 1471.25 1212.09 1471.29 1217.37 1471.40 1222.66 C 1478.25 1222.61 1485.16 1223.19 1491.98 1222.35 C 1498.77 1221.01 1499.43 1210.51 1493.17 1207.99 C 1486.19 1205.72 1478.68 1207.01 1471.48 1206.81 Z" />
<path fill="#3a6ab0" opacity="1.00" d=" M 1591.39 1182.63 C 1599.59 1182.25 1607.82 1182.26 1616.03 1182.53 C 1624.35 1182.79 1630.87 1191.97 1627.83 1199.88 C 1626.64 1205.04 1621.66 1207.55 1617.43 1209.91 C 1621.33 1216.02 1625.72 1221.89 1628.60 1228.60 C 1626.41 1228.56 1624.22 1228.78 1622.11 1228.29 C 1617.45 1222.95 1614.84 1216.17 1610.44 1210.66 C 1609.69 1209.45 1608.21 1209.61 1607.03 1209.55 C 1603.84 1209.45 1600.66 1209.57 1597.49 1209.62 C 1597.39 1215.95 1597.60 1222.28 1597.21 1228.61 C 1595.27 1228.59 1593.36 1228.60 1591.45 1228.61 C 1591.34 1213.28 1591.45 1197.96 1591.39 1182.63 M 1597.54 1187.72 C 1597.38 1193.02 1597.40 1198.32 1597.50 1203.63 C 1603.67 1203.68 1609.88 1204.07 1616.05 1203.53 C 1621.54 1203.12 1624.29 1195.96 1621.34 1191.62 C 1619.73 1188.66 1616.16 1187.87 1613.09 1187.71 C 1607.90 1187.46 1602.72 1187.67 1597.54 1187.72 Z" />
<path fill="#3a6ab0" opacity="1.00" d=" M 1648.63 1182.56 C 1655.43 1182.34 1662.24 1182.25 1669.05 1182.49 C 1677.13 1182.69 1684.42 1188.22 1687.84 1195.38 C 1690.10 1199.89 1690.05 1205.14 1689.50 1210.04 C 1687.78 1219.82 1679.00 1227.79 1669.07 1228.47 C 1662.26 1228.84 1655.43 1228.62 1648.62 1228.49 C 1648.52 1213.18 1648.50 1197.86 1648.63 1182.56 M 1654.71 1187.84 C 1654.45 1199.40 1654.59 1210.96 1654.63 1222.53 C 1660.06 1222.67 1665.55 1223.10 1670.97 1222.34 C 1678.52 1220.50 1684.38 1212.85 1683.69 1205.00 C 1684.03 1197.85 1679.05 1190.99 1672.29 1188.80 C 1666.61 1186.98 1660.56 1187.69 1654.71 1187.84 Z" />
<path fill="#3a6ab0" opacity="1.00" d=" M 1710.45 1182.49 C 1721.46 1182.30 1732.49 1182.38 1743.51 1182.44 C 1743.53 1184.11 1743.57 1185.78 1743.64 1187.48 C 1734.61 1187.87 1725.57 1187.48 1716.54 1187.72 C 1716.35 1192.66 1716.34 1197.62 1716.64 1202.57 C 1724.28 1202.92 1732.06 1201.73 1739.61 1203.40 C 1739.62 1204.45 1739.64 1206.56 1739.64 1207.62 C 1732.00 1209.08 1724.19 1208.06 1716.47 1208.38 C 1716.42 1213.09 1716.43 1217.80 1716.39 1222.53 C 1725.36 1224.40 1734.60 1222.84 1743.70 1223.50 C 1743.59 1225.17 1743.50 1226.85 1743.43 1228.55 C 1732.44 1228.66 1721.45 1228.69 1710.46 1228.53 C 1710.32 1213.18 1710.34 1197.83 1710.45 1182.49 Z" />
<path fill="#3a6ab0" opacity="1.00" d=" M 1763.56 1182.53 C 1772.04 1182.40 1780.55 1182.13 1789.03 1182.60 C 1796.99 1183.31 1802.69 1192.15 1800.05 1199.72 C 1798.83 1204.68 1794.22 1207.37 1790.09 1209.68 C 1793.27 1216.21 1797.99 1221.85 1800.89 1228.54 C 1798.67 1228.33 1796.13 1229.24 1794.18 1228.08 C 1789.39 1222.63 1786.98 1215.44 1782.06 1210.11 C 1778.08 1208.86 1773.68 1209.79 1769.56 1209.64 C 1769.49 1215.94 1769.55 1222.25 1769.45 1228.56 C 1767.46 1228.55 1765.49 1228.55 1763.54 1228.54 C 1763.46 1213.20 1763.42 1197.86 1763.56 1182.53 M 1769.62 1187.77 C 1769.45 1193.04 1769.48 1198.31 1769.57 1203.59 C 1775.71 1203.71 1781.89 1204.05 1788.04 1203.56 C 1791.81 1203.29 1794.86 1199.69 1794.62 1195.94 C 1795.21 1191.58 1791.06 1188.18 1787.03 1187.89 C 1781.24 1187.30 1775.41 1187.70 1769.62 1187.77 Z" />
</g>
<g id="#30627eff">
<path fill="#30627e" opacity="1.00" d=" M 574.75 975.79 C 583.46 975.74 592.18 975.61 600.89 975.76 C 602.93 975.50 603.87 977.59 604.69 979.08 C 609.54 989.04 613.56 999.39 618.60 1009.27 C 623.62 1019.37 628.10 1029.72 632.94 1039.90 C 636.12 1046.25 638.43 1053.02 641.97 1059.20 C 649.66 1042.59 657.25 1025.93 665.27 1009.48 C 669.97 999.80 673.95 989.77 678.94 980.23 C 679.95 978.73 680.75 976.33 682.94 976.41 C 691.47 976.14 700.02 976.29 708.55 976.46 C 708.71 1014.14 708.76 1051.83 708.52 1089.51 C 699.89 1089.73 691.26 1089.79 682.63 1089.47 C 682.17 1070.55 682.88 1051.62 682.28 1032.71 C 678.39 1039.43 676.07 1046.89 672.63 1053.84 C 667.17 1065.69 661.96 1077.66 656.48 1089.51 C 646.83 1089.77 637.17 1089.75 627.52 1089.53 C 622.20 1078.67 617.62 1067.48 612.50 1056.54 C 609.03 1049.41 606.71 1041.64 601.88 1035.26 C 600.96 1053.34 601.75 1071.47 601.48 1089.57 C 592.52 1089.71 583.57 1089.75 574.62 1089.54 C 574.77 1051.62 574.51 1013.71 574.75 975.79 Z" />
<path fill="#30627e" opacity="1.00" d=" M 735.76 975.80 C 763.80 975.61 791.84 975.85 819.88 975.67 C 821.07 983.89 820.28 992.22 820.39 1000.49 C 808.60 1000.89 796.79 1000.56 785.00 1000.67 C 777.50 1000.80 769.95 1000.13 762.52 1001.37 C 762.41 1008.12 762.43 1014.87 762.50 1021.63 C 777.88 1023.07 793.37 1021.81 808.80 1022.32 C 809.60 1029.89 809.60 1037.55 808.78 1045.12 C 793.36 1045.75 777.93 1045.10 762.51 1045.45 C 762.42 1051.81 762.43 1058.17 762.50 1064.54 C 781.73 1064.88 800.97 1064.14 820.18 1064.91 C 820.49 1073.13 820.92 1081.41 819.88 1089.59 C 791.79 1089.66 763.71 1089.79 735.63 1089.53 C 735.78 1051.62 735.51 1013.70 735.76 975.80 Z" />
<path fill="#30627e" opacity="1.00" d=" M 844.36 976.38 C 858.90 976.18 873.45 976.36 888.00 976.30 C 895.42 976.38 903.01 975.78 910.23 977.91 C 921.26 980.96 931.67 987.07 938.96 995.99 C 943.49 1001.85 946.91 1008.59 948.93 1015.72 C 951.17 1023.61 950.90 1031.91 950.63 1040.03 C 949.42 1056.23 940.59 1072.12 926.50 1080.56 C 917.10 1086.35 906.13 1089.86 895.04 1089.66 C 878.14 1089.61 861.25 1089.76 844.37 1089.59 C 844.23 1051.85 844.25 1014.12 844.36 976.38 M 870.82 1001.07 C 870.30 1009.70 870.67 1018.35 870.57 1027.00 C 870.64 1039.47 870.42 1051.95 870.68 1064.43 C 879.12 1064.57 887.60 1064.91 896.02 1064.25 C 906.09 1063.28 914.94 1056.49 919.57 1047.68 C 923.00 1041.12 923.14 1033.44 922.31 1026.26 C 920.32 1014.19 910.07 1003.84 897.98 1001.86 C 889.02 1000.34 879.86 1000.30 870.82 1001.07 Z" />
<path fill="#30627e" opacity="1.00" d=" M 963.65 1023.60 C 972.78 1023.39 981.91 1023.53 991.05 1023.48 C 996.87 1023.37 1002.97 1024.68 1007.55 1028.45 C 1016.08 1035.32 1019.14 1047.64 1016.03 1057.97 C 1014.80 1063.20 1010.93 1067.13 1007.43 1070.98 C 1010.26 1077.43 1015.15 1082.71 1017.82 1089.25 C 1012.28 1089.45 1006.67 1089.95 1001.16 1089.15 C 996.86 1085.51 994.92 1079.91 991.60 1075.46 C 987.63 1075.35 983.66 1075.34 979.70 1075.35 C 979.41 1080.02 979.35 1084.70 979.37 1089.39 C 974.13 1089.56 968.89 1089.56 963.66 1089.38 C 963.55 1067.45 963.56 1045.52 963.65 1023.60 M 979.48 1038.49 C 979.37 1045.79 979.30 1053.10 979.55 1060.40 C 984.95 1060.29 990.90 1061.57 995.81 1058.70 C 1002.76 1054.63 1002.20 1042.75 994.81 1039.44 C 989.95 1037.55 984.56 1038.59 979.48 1038.49 Z" />
<path fill="#30627e" opacity="1.00" d=" M 1028.68 1023.61 C 1044.83 1023.33 1060.99 1023.62 1077.15 1023.45 C 1077.77 1028.19 1077.71 1032.98 1077.52 1037.76 C 1066.56 1039.19 1055.48 1037.95 1044.47 1038.49 C 1044.42 1042.17 1044.42 1045.86 1044.46 1049.56 C 1053.19 1050.88 1062.04 1050.02 1070.84 1050.35 C 1071.57 1054.73 1071.52 1059.20 1071.37 1063.64 C 1062.45 1064.94 1053.43 1063.79 1044.47 1064.44 C 1044.44 1067.27 1044.26 1070.14 1044.65 1072.98 C 1045.70 1074.96 1048.09 1074.44 1049.96 1074.61 C 1059.20 1074.62 1068.45 1074.49 1077.69 1074.60 C 1078.52 1079.51 1078.51 1084.52 1077.70 1089.43 C 1061.35 1089.51 1045.01 1089.58 1028.67 1089.39 C 1028.60 1067.46 1028.58 1045.54 1028.68 1023.61 Z" />
<path fill="#30627e" opacity="1.00" d=" M 1085.64 1023.59 C 1105.18 1023.46 1124.74 1023.38 1144.29 1023.64 C 1144.38 1028.52 1144.38 1033.42 1144.26 1038.31 C 1137.28 1038.50 1130.31 1038.33 1123.34 1038.49 C 1122.99 1055.42 1123.31 1072.37 1123.19 1089.31 C 1117.70 1089.59 1112.21 1089.59 1106.72 1089.34 C 1106.53 1072.40 1106.90 1055.46 1106.55 1038.53 C 1099.59 1038.30 1092.63 1038.49 1085.68 1038.34 C 1085.51 1033.42 1085.51 1028.51 1085.64 1023.59 Z" />
<path fill="#30627e" opacity="1.00" d=" M 1153.59 1023.57 C 1163.08 1023.43 1172.57 1023.49 1182.06 1023.50 C 1189.20 1023.40 1196.52 1026.36 1200.95 1032.09 C 1206.55 1038.85 1207.90 1048.27 1206.04 1056.67 C 1204.70 1062.44 1200.42 1066.78 1196.62 1071.06 C 1200.18 1077.02 1204.31 1082.62 1207.85 1088.60 C 1202.13 1089.70 1196.00 1090.21 1190.33 1088.86 C 1186.53 1085.05 1184.46 1079.89 1181.38 1075.52 C 1177.37 1075.34 1173.36 1075.33 1169.36 1075.39 C 1169.03 1079.95 1170.27 1085.11 1167.94 1089.24 C 1163.15 1089.89 1158.30 1089.47 1153.51 1089.18 C 1153.57 1067.31 1153.41 1045.44 1153.59 1023.57 M 1169.47 1038.53 C 1169.25 1045.81 1169.18 1053.10 1169.54 1060.38 C 1175.01 1060.47 1181.07 1061.23 1185.88 1058.02 C 1191.44 1054.06 1191.84 1044.83 1186.38 1040.64 C 1181.37 1037.37 1175.09 1038.54 1169.47 1038.53 Z" />
<path fill="#30627e" opacity="1.00" d=" M 1218.63 1023.59 C 1234.88 1023.43 1251.14 1023.43 1267.40 1023.59 C 1267.56 1028.50 1267.56 1033.43 1267.37 1038.35 C 1256.39 1038.59 1245.41 1038.20 1234.44 1038.54 C 1234.34 1042.20 1234.34 1045.87 1234.42 1049.54 C 1243.11 1049.89 1251.81 1049.55 1260.50 1049.74 C 1261.47 1054.25 1261.43 1058.87 1261.28 1063.46 C 1252.29 1064.18 1243.18 1062.73 1234.29 1064.52 C 1234.34 1067.82 1234.39 1071.12 1234.49 1074.44 C 1245.45 1074.79 1256.42 1074.40 1267.39 1074.63 C 1267.54 1079.45 1267.54 1084.27 1267.49 1089.10 C 1258.01 1089.90 1248.49 1089.31 1239.00 1089.47 C 1232.17 1089.44 1225.34 1089.71 1218.53 1089.17 C 1218.61 1067.31 1218.42 1045.45 1218.63 1023.59 Z" />
<path fill="#30627e" opacity="1.00" d=" M 1341.75 1023.63 C 1361.29 1023.39 1380.84 1023.45 1400.38 1023.60 C 1400.53 1028.51 1400.54 1033.43 1400.36 1038.35 C 1393.39 1038.47 1386.43 1038.32 1379.47 1038.51 C 1379.15 1055.46 1379.50 1072.41 1379.31 1089.36 C 1374.05 1089.56 1368.78 1089.54 1363.52 1089.45 C 1363.30 1072.49 1363.66 1055.54 1363.36 1038.59 C 1356.33 1038.26 1349.30 1038.46 1342.27 1038.41 C 1341.50 1033.52 1341.59 1028.56 1341.75 1023.63 Z" />
<path fill="#30627e" opacity="1.00" d=" M 1412.82 1028.73 C 1420.92 1022.16 1432.31 1020.87 1442.18 1023.49 C 1449.02 1025.33 1454.50 1030.33 1457.96 1036.40 C 1453.89 1039.47 1449.06 1041.59 1444.02 1042.36 C 1440.29 1040.94 1437.03 1037.97 1432.84 1038.11 C 1429.36 1038.09 1425.12 1038.23 1422.83 1041.24 C 1421.49 1043.72 1424.48 1045.54 1426.45 1046.33 C 1435.05 1049.56 1444.55 1050.47 1452.55 1055.28 C 1456.32 1057.49 1459.39 1061.05 1460.46 1065.36 C 1463.11 1073.38 1458.78 1082.39 1451.79 1086.66 C 1444.81 1091.19 1436.10 1091.00 1428.13 1090.46 C 1417.67 1089.51 1407.99 1082.07 1405.20 1071.82 C 1409.77 1069.93 1414.42 1068.25 1419.16 1066.81 C 1422.50 1070.44 1425.98 1074.80 1431.28 1075.29 C 1435.65 1075.68 1441.14 1075.94 1444.24 1072.23 C 1445.62 1068.86 1441.70 1067.06 1439.21 1066.03 C 1430.56 1062.96 1420.97 1062.15 1413.20 1056.89 C 1408.53 1053.92 1405.57 1048.52 1405.64 1042.99 C 1405.92 1037.52 1408.43 1032.09 1412.82 1028.73 Z" />
<path fill="#30627e" opacity="1.00" d=" M 1303.85 1023.59 C 1309.24 1023.44 1314.64 1023.42 1320.03 1023.65 C 1328.05 1041.02 1335.16 1058.80 1342.91 1076.31 C 1344.68 1080.36 1346.42 1084.43 1347.99 1088.59 C 1342.73 1090.01 1337.27 1089.50 1331.90 1089.37 C 1330.23 1086.19 1328.63 1082.99 1327.13 1079.74 C 1316.99 1079.45 1306.85 1079.53 1296.71 1079.69 C 1295.08 1082.79 1294.16 1086.45 1291.66 1088.97 C 1286.57 1090.15 1281.24 1089.33 1276.07 1089.29 C 1278.14 1080.51 1282.88 1072.70 1286.02 1064.30 C 1292.05 1050.77 1297.34 1036.90 1303.85 1023.59 M 1311.44 1045.47 C 1307.80 1052.01 1304.75 1059.02 1303.03 1066.33 C 1308.94 1066.41 1314.86 1066.43 1320.78 1066.26 C 1318.48 1059.21 1315.95 1052.14 1312.56 1045.54 C 1312.28 1045.53 1311.72 1045.49 1311.44 1045.47 Z" />
</g>
</svg>
